if (_typeface_js && _typeface_js.loadFace) _typeface_js.loadFace({"glyphs":{"0":{"ha":833,"x_min":0,"x_max":764,"o":"m 694 69 l 694 0 l 69 0 l 69 69 l 0 69 l 0 625 l 69 625 l 69 694 l 694 694 l 694 625 l 764 625 l 764 69 l 694 69 m 486 278 l 486 417 l 486 556 l 278 556 l 278 139 l 486 139 l 486 278 "},"1":{"ha":347,"x_min":0,"x_max":278,"o":"m 0 0 l 0 694 l 278 694 l 278 0 l 0 0 "},"2":{"ha":833,"x_min":0,"x_max":764,"o":"m 278 278 l 278 139 l 764 139 l 764 0 l 0 0 l 0 347 l 69 347 l 69 417 l 278 417 l 486 417 l 486 556 l 0 556 l 0 694 l 694 694 l 694 625 l 764 625 l 764 347 l 694 347 l 694 278 l 278 278 "},"3":{"ha":833,"x_min":0,"x_max":764,"o":"m 0 0 l 0 139 l 486 139 l 486 278 l 278 278 l 278 417 l 486 417 l 486 556 l 0 556 l 0 694 l 694 694 l 694 625 l 764 625 l 764 417 l 694 417 l 694 278 l 764 278 l 764 69 l 694 69 l 694 0 l 0 0 "},"4":{"ha":833,"x_min":0,"x_max":764,"o":"m 0 347 l 0 694 l 278 694 l 278 417 l 486 417 l 486 694 l 764 694 l 764 0 l 486 0 l 486 278 l 69 278 l 69 347 l 0 347 "},"5":{"ha":833,"x_min":0,"x_max":764,"o":"m 278 556 l 278 417 l 694 417 l 694 347 l 764 347 l 764 69 l 694 69 l 694 0 l 0 0 l 0 139 l 486 139 l 486 278 l 69 278 l 69 347 l 0 347 l 0 694 l 278 694 l 764 694 l 764 556 l 278 556 "},"6":{"ha":833,"x_min":0,"x_max":764,"o":"m 694 69 l 694 0 l 69 0 l 69 69 l 0 69 l 0 625 l 69 625 l 69 694 l 764 694 l 764 556 l 278 556 l 278 417 l 347 417 l 694 417 l 694 347 l 764 347 l 764 69 l 694 69 m 278 278 l 278 139 l 486 139 l 486 278 l 278 278 "},"7":{"ha":833,"x_min":0,"x_max":764,"o":"m 0 556 l 0 694 l 764 694 l 764 486 l 694 486 l 694 417 l 625 417 l 625 347 l 556 347 l 556 278 l 486 278 l 486 208 l 417 208 l 417 139 l 347 139 l 347 69 l 278 69 l 278 0 l 0 0 l 0 139 l 69 139 l 69 208 l 139 208 l 139 278 l 208 278 l 208 347 l 278 347 l 278 417 l 347 417 l 347 486 l 417 486 l 417 556 l 0 556 "},"8":{"ha":833,"x_min":0,"x_max":764,"o":"m 694 69 l 694 0 l 69 0 l 69 69 l 0 69 l 0 278 l 69 278 l 69 417 l 0 417 l 0 625 l 69 625 l 69 694 l 694 694 l 694 625 l 764 625 l 764 417 l 694 417 l 694 278 l 764 278 l 764 69 l 694 69 m 278 278 l 278 139 l 486 139 l 486 278 l 278 278 m 278 556 l 278 417 l 486 417 l 486 556 l 278 556 "},"9":{"ha":833,"x_min":0,"x_max":764,"o":"m 486 0 l 486 278 l 69 278 l 69 347 l 0 347 l 0 625 l 69 625 l 69 694 l 694 694 l 694 625 l 764 625 l 764 0 l 486 0 m 278 556 l 278 417 l 486 417 l 486 556 l 278 556 "},"‛":{"ha":1022,"x_min":14,"x_max":1008,"o":"m 239 11 l 235 11 q 233 16 233 13 q 232 22 232 19 l 213 22 q 203 53 211 38 q 178 69 196 69 l 175 69 q 126 40 147 50 q 71 31 104 31 q 78 54 71 44 q 89 78 86 64 q 66 78 83 78 q 43 81 49 79 q 35 82 40 81 q 28 83 31 83 l 28 89 q 33 108 28 100 q 43 126 39 115 q 44 133 43 128 q 46 140 44 139 q 49 144 46 142 q 54 147 53 146 q 70 163 65 156 q 75 185 75 171 q 58 208 75 197 q 31 231 40 219 q 16 270 18 246 q 14 314 14 294 q 14 332 14 325 q 22 347 14 340 q 31 354 24 349 q 45 366 38 360 q 60 378 53 372 q 68 385 67 383 q 72 394 72 389 q 59 461 72 429 q 46 528 46 493 q 47 540 46 535 q 51 551 47 546 l 51 578 l 51 604 q 49 647 50 621 q 45 696 47 672 q 42 738 43 719 q 40 756 40 756 l 25 774 l 25 776 q 31 802 25 790 q 44 826 36 814 q 57 851 51 838 q 63 879 63 864 l 63 894 q 61 895 63 894 q 60 897 60 896 q 51 908 57 900 q 43 919 46 917 l 43 924 q 51 942 43 929 q 67 967 58 954 q 85 988 76 979 q 94 997 93 997 l 129 997 q 139 984 132 997 q 167 968 146 971 l 194 968 l 224 968 q 240 969 228 968 q 265 972 251 971 q 291 973 279 972 q 307 974 303 974 q 351 990 331 979 q 390 1014 371 1000 q 394 1015 392 1014 q 397 1015 396 1015 q 409 1013 400 1015 q 428 1008 418 1011 q 445 1003 438 1006 q 453 997 453 1000 l 453 954 q 481 960 467 954 q 508 974 494 967 q 536 990 522 982 q 565 1000 550 997 l 594 1000 q 662 994 629 1000 q 729 989 694 989 l 747 989 q 775 1003 761 997 q 806 1008 789 1008 q 849 1002 828 1008 q 892 988 871 996 q 935 972 914 979 q 979 963 956 964 l 979 942 q 970 873 979 906 q 961 806 961 840 q 961 790 961 800 q 963 770 961 781 q 967 751 964 760 q 979 742 971 743 q 980 729 979 739 q 981 717 981 719 q 980 703 981 713 q 979 693 979 694 q 977 666 979 685 q 973 625 975 647 q 969 584 971 603 q 965 557 967 565 q 953 536 960 546 q 947 514 947 526 q 956 485 947 499 q 968 457 965 472 q 969 443 968 454 q 972 419 971 432 q 975 396 974 407 q 976 382 976 385 q 984 356 979 369 q 1000 333 989 342 q 1006 299 1003 315 q 1008 267 1008 283 l 1008 256 l 960 201 l 960 196 q 968 129 960 161 q 976 64 976 97 l 976 49 q 935 22 964 33 q 886 11 907 11 q 867 23 874 11 q 853 43 861 35 q 831 54 846 50 q 807 58 817 58 q 803 58 806 58 q 799 57 800 57 q 790 45 797 53 q 772 31 782 38 q 753 19 763 24 q 739 14 743 14 q 713 15 729 14 q 689 26 696 17 q 662 42 679 42 q 628 43 644 43 q 573 36 600 43 q 520 22 546 29 q 468 7 494 14 q 414 0 442 0 l 399 0 q 382 15 392 10 q 361 26 372 19 q 353 31 358 28 q 349 35 349 35 l 349 57 q 345 58 349 57 q 339 57 342 58 q 309 49 328 54 q 281 38 290 44 q 262 21 274 31 q 239 11 250 11 m 651 193 q 675 185 667 193 q 697 172 683 176 q 719 169 711 169 q 744 169 729 169 l 775 169 q 797 171 781 169 q 830 174 813 172 q 863 176 847 175 q 885 178 878 178 l 885 274 q 882 276 885 274 q 876 279 879 278 q 863 283 869 282 q 849 285 856 285 q 841 280 844 285 q 833 274 838 275 q 825 272 831 272 q 817 272 819 272 q 792 276 803 272 q 767 282 782 281 q 746 283 763 282 q 710 284 729 283 q 673 286 690 285 q 651 288 656 288 q 642 289 649 288 q 632 290 635 290 q 628 298 632 292 q 619 312 624 304 q 612 326 615 319 q 608 333 608 333 q 603 339 608 335 q 597 344 599 343 q 593 362 592 351 q 589 379 594 372 q 574 388 582 388 l 574 396 q 586 417 574 407 q 622 417 596 417 q 678 418 649 418 q 733 419 707 418 q 769 419 758 419 q 792 420 778 419 q 822 423 807 421 q 851 428 838 425 q 874 438 865 432 q 871 467 871 456 q 871 493 871 478 l 871 506 q 872 513 871 507 q 874 521 874 518 q 872 528 874 521 q 871 538 871 535 q 867 551 869 540 q 864 564 865 561 l 821 564 q 780 565 806 564 q 740 550 754 565 l 646 550 q 632 537 639 542 q 614 532 625 532 q 605 534 607 532 q 600 543 603 536 q 589 555 597 550 q 578 567 581 560 l 565 604 q 555 616 557 608 q 551 633 553 624 q 548 651 550 643 q 538 664 546 660 l 538 696 l 546 704 q 603 733 574 728 q 671 739 633 739 q 684 735 679 739 q 694 725 689 731 q 703 714 699 719 q 715 707 708 708 q 757 705 739 706 q 796 704 775 704 l 807 704 q 819 713 810 710 q 839 717 829 717 q 856 719 849 718 q 864 721 864 719 l 864 774 q 859 783 861 778 q 856 793 857 788 q 855 806 856 797 q 853 824 854 814 q 851 842 853 833 q 850 854 850 850 q 849 868 850 857 q 840 879 847 879 q 822 872 831 879 q 804 863 814 865 q 710 844 758 844 q 660 847 685 844 q 611 849 636 849 q 542 842 575 849 q 472 836 508 836 l 433 836 q 415 845 421 839 q 399 863 410 851 l 394 863 q 367 844 379 863 q 344 814 354 825 q 339 805 343 811 q 333 796 335 799 q 328 787 332 794 q 320 771 325 779 q 312 754 315 763 q 307 744 308 746 q 296 731 301 735 q 283 722 289 724 q 269 718 278 721 q 260 708 263 715 q 250 699 257 701 q 248 685 249 696 q 247 672 247 675 l 247 669 q 251 657 247 663 q 256 644 256 651 q 254 633 256 640 q 251 617 253 625 q 248 602 250 608 q 244 594 246 596 q 244 575 243 590 q 247 554 244 560 q 259 528 251 538 q 267 503 267 519 q 261 451 267 479 q 244 403 256 424 q 237 388 242 400 q 229 374 232 376 q 229 368 232 371 q 224 365 226 365 q 204 324 207 347 q 197 279 201 301 q 197 274 197 276 q 194 271 196 271 l 169 242 q 149 227 154 239 q 143 203 143 215 q 146 193 143 192 q 157 190 149 194 q 161 186 161 188 q 161 183 161 185 q 163 181 161 182 q 172 181 165 181 q 185 187 181 181 q 196 193 189 193 l 197 193 q 207 188 200 192 q 215 183 214 185 q 220 182 217 183 q 224 181 224 181 l 278 181 q 286 190 281 183 q 299 199 292 197 l 299 271 q 301 276 299 272 q 304 282 303 279 q 317 293 307 285 q 329 304 326 301 l 329 336 q 338 353 336 342 q 342 371 340 364 q 355 379 344 376 q 371 382 365 382 l 435 382 q 432 374 435 379 q 431 365 429 368 q 436 362 431 364 q 442 360 442 360 q 451 354 444 357 q 457 350 457 351 l 471 207 q 517 199 493 204 q 524 192 522 196 q 526 184 525 188 q 532 178 528 181 q 549 175 536 175 l 560 175 l 643 193 l 651 193 m 372 531 q 373 535 372 532 q 374 540 374 539 q 382 544 376 542 q 388 551 388 546 q 388 572 388 557 q 390 592 389 588 q 393 601 390 594 q 396 610 396 607 l 396 617 q 392 638 396 628 q 388 658 388 647 l 411 658 q 426 647 417 647 l 426 624 q 436 619 426 618 q 444 613 446 621 q 445 598 444 608 q 447 576 446 588 q 447 554 447 565 q 447 540 447 544 l 447 531 l 447 521 q 426 501 442 513 q 399 489 411 489 q 380 505 388 489 q 372 531 372 521 "}," ":{"ha":486,"x_min":0,"x_max":0,"o":""},"!":{"ha":347,"x_min":0,"x_max":278,"o":"m 0 208 l 0 694 l 278 694 l 278 208 l 0 208 m 0 0 l 0 139 l 278 139 l 278 0 l 0 0 "},"\"":{"ha":556,"x_min":0,"x_max":486,"o":"m 0 556 l 0 694 l 208 694 l 208 556 l 0 556 m 278 556 l 278 694 l 486 694 l 486 556 l 278 556 "},"#":{"ha":833,"x_min":0,"x_max":764,"o":"m 347 139 l 347 0 l 69 0 l 69 139 l 0 139 l 0 278 l 69 278 l 69 417 l 0 417 l 0 556 l 69 556 l 69 694 l 347 694 l 347 556 l 417 556 l 417 694 l 694 694 l 694 556 l 764 556 l 764 417 l 694 417 l 694 278 l 764 278 l 764 139 l 694 139 l 694 0 l 417 0 l 417 139 l 347 139 m 347 417 l 347 278 l 417 278 l 417 417 l 347 417 "},"$":{"ha":833,"x_min":0,"x_max":764,"o":"m 0 0 l 0 139 l 486 139 l 486 278 l 69 278 l 69 347 l 0 347 l 0 625 l 69 625 l 69 694 l 278 694 l 278 764 l 486 764 l 486 694 l 764 694 l 764 556 l 278 556 l 278 417 l 694 417 l 694 347 l 764 347 l 764 69 l 694 69 l 694 0 l 486 0 l 486 -69 l 278 -69 l 278 0 l 0 0 "},"%":{"ha":903,"x_min":0,"x_max":833,"o":"m 486 556 l 486 625 l 556 625 l 556 694 l 833 694 l 833 556 l 764 556 l 764 486 l 694 486 l 694 417 l 625 417 l 625 347 l 556 347 l 556 278 l 486 278 l 486 208 l 417 208 l 417 139 l 347 139 l 347 69 l 278 69 l 278 0 l 0 0 l 0 139 l 69 139 l 69 208 l 139 208 l 139 278 l 208 278 l 208 347 l 278 347 l 278 417 l 347 417 l 347 486 l 417 486 l 417 556 l 486 556 m 764 69 l 764 0 l 625 0 l 625 69 l 556 69 l 556 208 l 625 208 l 625 278 l 764 278 l 764 208 l 833 208 l 833 69 l 764 69 m 208 486 l 208 417 l 69 417 l 69 486 l 0 486 l 0 625 l 69 625 l 69 694 l 208 694 l 208 625 l 278 625 l 278 486 l 208 486 "},"&":{"ha":833,"x_min":0,"x_max":764,"o":"m 69 0 l 69 69 l 0 69 l 0 625 l 69 625 l 69 694 l 278 694 l 278 764 l 486 764 l 486 694 l 764 694 l 764 556 l 278 556 l 278 417 l 486 417 l 486 278 l 278 278 l 278 139 l 764 139 l 764 0 l 486 0 l 486 -69 l 278 -69 l 278 0 l 69 0 "},"'":{"ha":278,"x_min":0,"x_max":208,"o":"m 0 556 l 0 694 l 208 694 l 208 556 l 0 556 "},"(":{"ha":556,"x_min":0,"x_max":486,"o":"m 278 556 l 278 139 l 486 139 l 486 0 l 69 0 l 69 69 l 0 69 l 0 625 l 69 625 l 69 694 l 486 694 l 486 556 l 278 556 "},")":{"ha":556,"x_min":0,"x_max":486,"o":"m 0 0 l 0 139 l 208 139 l 208 556 l 0 556 l 0 694 l 417 694 l 417 625 l 486 625 l 486 69 l 417 69 l 417 0 l 0 0 "},"*":{"ha":694,"x_min":0,"x_max":625,"o":"m 0 486 l 0 625 l 139 625 l 139 556 l 208 556 l 208 625 l 278 625 l 278 694 l 347 694 l 347 625 l 417 625 l 417 556 l 486 556 l 486 625 l 625 625 l 625 486 l 556 486 l 556 417 l 486 417 l 486 347 l 556 347 l 556 208 l 417 208 l 417 278 l 347 278 l 347 347 l 278 347 l 278 278 l 208 278 l 208 208 l 69 208 l 69 347 l 139 347 l 139 417 l 69 417 l 69 486 l 0 486 "},"+":{"ha":833,"x_min":0,"x_max":764,"o":"m 486 278 l 486 139 l 278 139 l 278 278 l 0 278 l 0 417 l 278 417 l 278 556 l 486 556 l 486 417 l 764 417 l 764 278 l 486 278 "},",":{"ha":278,"x_min":0,"x_max":208,"o":"m 0 -139 l 0 139 l 208 139 l 208 -139 l 0 -139 "},"-":{"ha":833,"x_min":0,"x_max":764,"o":"m 0 278 l 0 417 l 764 417 l 764 278 l 0 278 "},".":{"ha":278,"x_min":0,"x_max":208,"o":"m 0 0 l 0 139 l 208 139 l 208 0 l 0 0 "},"/":{"ha":903,"x_min":0,"x_max":833,"o":"m 486 556 l 486 625 l 556 625 l 556 694 l 833 694 l 833 556 l 764 556 l 764 486 l 694 486 l 694 417 l 625 417 l 625 347 l 556 347 l 556 278 l 486 278 l 486 208 l 417 208 l 417 139 l 347 139 l 347 69 l 278 69 l 278 0 l 0 0 l 0 139 l 69 139 l 69 208 l 139 208 l 139 278 l 208 278 l 208 347 l 278 347 l 278 417 l 347 417 l 347 486 l 417 486 l 417 556 l 486 556 "},":":{"ha":278,"x_min":0,"x_max":208,"o":"m 0 0 l 0 139 l 208 139 l 208 0 l 0 0 m 0 556 l 0 694 l 208 694 l 208 556 l 0 556 "},";":{"ha":278,"x_min":0,"x_max":208,"o":"m 0 -139 l 0 139 l 208 139 l 208 -139 l 0 -139 m 0 556 l 0 694 l 208 694 l 208 556 l 0 556 "},"<":{"ha":625,"x_min":0,"x_max":556,"o":"m 69 208 l 69 278 l 0 278 l 0 417 l 69 417 l 69 486 l 139 486 l 139 556 l 208 556 l 208 625 l 278 625 l 278 694 l 556 694 l 556 556 l 486 556 l 486 486 l 417 486 l 417 417 l 347 417 l 347 278 l 417 278 l 417 208 l 486 208 l 486 139 l 556 139 l 556 0 l 278 0 l 278 69 l 208 69 l 208 139 l 139 139 l 139 208 l 69 208 "},"=":{"ha":833,"x_min":0,"x_max":764,"o":"m 0 417 l 0 556 l 764 556 l 764 417 l 0 417 m 0 139 l 0 278 l 764 278 l 764 139 l 0 139 "},">":{"ha":625,"x_min":0,"x_max":556,"o":"m 0 556 l 0 694 l 278 694 l 278 625 l 347 625 l 347 556 l 417 556 l 417 486 l 486 486 l 486 417 l 556 417 l 556 278 l 486 278 l 486 208 l 417 208 l 417 139 l 347 139 l 347 69 l 278 69 l 278 0 l 0 0 l 0 139 l 69 139 l 69 208 l 139 208 l 139 278 l 208 278 l 208 417 l 139 417 l 139 486 l 69 486 l 69 556 l 0 556 "},"?":{"ha":833,"x_min":0,"x_max":764,"o":"m 278 556 l 278 417 l 0 417 l 0 625 l 69 625 l 69 694 l 694 694 l 694 625 l 764 625 l 764 347 l 694 347 l 694 278 l 486 278 l 486 208 l 278 208 l 278 347 l 347 347 l 347 417 l 486 417 l 486 556 l 278 556 m 278 0 l 278 139 l 486 139 l 486 0 l 278 0 "},"@":{"ha":972,"x_min":0,"x_max":903,"o":"m 278 556 l 278 139 l 903 139 l 903 0 l 69 0 l 69 69 l 0 69 l 0 625 l 69 625 l 69 694 l 833 694 l 833 625 l 903 625 l 903 278 l 833 278 l 833 208 l 347 208 l 347 486 l 556 486 l 556 278 l 625 278 l 625 556 l 278 556 m 417 417 l 417 278 l 486 278 l 486 417 l 417 417 "},"A":{"ha":833,"x_min":0,"x_max":764,"o":"m 278 278 l 278 0 l 0 0 l 0 625 l 69 625 l 69 694 l 486 694 l 694 694 l 694 625 l 764 625 l 764 0 l 486 0 l 486 278 l 278 278 m 278 556 l 278 417 l 486 417 l 486 556 l 278 556 "},"B":{"ha":833,"x_min":0,"x_max":764,"o":"m 694 69 l 694 0 l 0 0 l 0 694 l 278 694 l 694 694 l 694 625 l 764 625 l 764 417 l 694 417 l 694 278 l 764 278 l 764 69 l 694 69 m 278 278 l 278 139 l 486 139 l 486 278 l 278 278 m 278 556 l 278 417 l 486 417 l 486 556 l 278 556 "},"C":{"ha":833,"x_min":0,"x_max":764,"o":"m 694 69 l 694 0 l 69 0 l 69 69 l 0 69 l 0 625 l 69 625 l 69 694 l 278 694 l 694 694 l 694 625 l 764 625 l 764 417 l 486 417 l 486 556 l 278 556 l 278 139 l 486 139 l 486 278 l 694 278 l 764 278 l 764 69 l 694 69 "},"D":{"ha":833,"x_min":0,"x_max":764,"o":"m 625 69 l 625 0 l 0 0 l 0 694 l 417 694 l 486 694 l 625 694 l 625 625 l 694 625 l 694 556 l 764 556 l 764 139 l 694 139 l 694 69 l 625 69 m 417 486 l 417 556 l 278 556 l 278 139 l 417 139 l 417 208 l 486 208 l 486 486 l 417 486 "},"E":{"ha":833,"x_min":0,"x_max":764,"o":"m 69 0 l 69 69 l 0 69 l 0 625 l 69 625 l 69 694 l 764 694 l 764 556 l 278 556 l 278 417 l 486 417 l 486 278 l 278 278 l 278 139 l 764 139 l 764 0 l 69 0 "},"F":{"ha":833,"x_min":0,"x_max":764,"o":"m 278 278 l 278 0 l 0 0 l 0 625 l 69 625 l 69 694 l 278 694 l 764 694 l 764 556 l 278 556 l 278 417 l 486 417 l 486 278 l 278 278 "},"G":{"ha":833,"x_min":0,"x_max":764,"o":"m 694 69 l 694 0 l 69 0 l 69 69 l 0 69 l 0 625 l 69 625 l 69 694 l 764 694 l 764 556 l 278 556 l 278 139 l 486 139 l 486 278 l 347 278 l 347 417 l 694 417 l 694 347 l 764 347 l 764 69 l 694 69 "},"H":{"ha":833,"x_min":0,"x_max":764,"o":"m 278 278 l 278 0 l 0 0 l 0 694 l 278 694 l 278 417 l 486 417 l 486 694 l 764 694 l 764 0 l 486 0 l 486 278 l 278 278 "},"I":{"ha":764,"x_min":0,"x_max":694,"o":"m 0 556 l 0 694 l 694 694 l 694 556 l 486 556 l 486 139 l 694 139 l 694 0 l 0 0 l 0 139 l 208 139 l 208 556 l 0 556 "},"J":{"ha":833,"x_min":0,"x_max":764,"o":"m 694 69 l 694 0 l 69 0 l 69 69 l 0 69 l 0 278 l 278 278 l 278 139 l 486 139 l 486 694 l 694 694 l 764 694 l 764 69 l 694 69 "},"K":{"ha":903,"x_min":0,"x_max":833,"o":"m 278 208 l 278 0 l 0 0 l 0 694 l 278 694 l 278 486 l 347 486 l 347 556 l 417 556 l 417 625 l 486 625 l 486 694 l 764 694 l 833 694 l 833 556 l 764 556 l 764 486 l 694 486 l 694 417 l 625 417 l 625 278 l 694 278 l 694 208 l 764 208 l 764 139 l 833 139 l 833 0 l 486 0 l 486 69 l 417 69 l 417 139 l 347 139 l 347 208 l 278 208 "},"L":{"ha":833,"x_min":0,"x_max":764,"o":"m 0 0 l 0 694 l 278 694 l 278 139 l 764 139 l 764 0 l 0 0 "},"M":{"ha":972,"x_min":0,"x_max":903,"o":"m 278 347 l 278 0 l 0 0 l 0 694 l 278 694 l 278 625 l 347 625 l 347 556 l 417 556 l 417 486 l 486 486 l 486 556 l 556 556 l 556 625 l 625 625 l 625 694 l 903 694 l 903 0 l 625 0 l 625 347 l 556 347 l 556 278 l 486 278 l 486 208 l 417 208 l 417 278 l 347 278 l 347 347 l 278 347 "},"N":{"ha":833,"x_min":0,"x_max":764,"o":"m 278 347 l 278 0 l 0 0 l 0 694 l 278 694 l 278 625 l 347 625 l 347 556 l 417 556 l 417 486 l 486 486 l 486 694 l 764 694 l 764 0 l 486 0 l 486 208 l 417 208 l 417 278 l 347 278 l 347 347 l 278 347 "},"O":{"ha":833,"x_min":0,"x_max":764,"o":"m 694 69 l 694 0 l 69 0 l 69 69 l 0 69 l 0 625 l 69 625 l 69 694 l 694 694 l 694 625 l 764 625 l 764 69 l 694 69 m 486 278 l 486 417 l 486 556 l 278 556 l 278 139 l 486 139 l 486 278 "},"P":{"ha":833,"x_min":0,"x_max":764,"o":"m 278 278 l 278 0 l 0 0 l 0 694 l 278 694 l 486 694 l 694 694 l 694 625 l 764 625 l 764 347 l 694 347 l 694 278 l 278 278 m 278 556 l 278 417 l 486 417 l 486 556 l 278 556 "},"Q":{"ha":833,"x_min":0,"x_max":764,"o":"m 278 -139 l 278 0 l 69 0 l 69 69 l 0 69 l 0 625 l 69 625 l 69 694 l 694 694 l 694 625 l 764 625 l 764 69 l 694 69 l 694 0 l 486 0 l 486 -139 l 278 -139 m 486 556 l 278 556 l 278 139 l 486 139 l 486 556 "},"R":{"ha":833,"x_min":0,"x_max":764,"o":"m 278 278 l 278 0 l 0 0 l 0 694 l 278 694 l 486 694 l 694 694 l 694 625 l 764 625 l 764 417 l 694 417 l 694 278 l 764 278 l 764 0 l 486 0 l 486 278 l 278 278 m 278 556 l 278 417 l 486 417 l 486 556 l 278 556 "},"S":{"ha":833,"x_min":0,"x_max":764,"o":"m 0 0 l 0 139 l 486 139 l 486 278 l 69 278 l 69 347 l 0 347 l 0 625 l 69 625 l 69 694 l 764 694 l 764 556 l 278 556 l 278 417 l 486 417 l 694 417 l 694 347 l 764 347 l 764 69 l 694 69 l 694 0 l 0 0 "},"T":{"ha":764,"x_min":0,"x_max":694,"o":"m 486 556 l 486 0 l 208 0 l 208 556 l 0 556 l 0 694 l 694 694 l 694 556 l 486 556 "},"U":{"ha":833,"x_min":0,"x_max":764,"o":"m 694 69 l 694 0 l 69 0 l 69 69 l 0 69 l 0 694 l 278 694 l 278 139 l 486 139 l 486 694 l 764 694 l 764 69 l 694 69 "},"V":{"ha":833,"x_min":0,"x_max":764,"o":"m 486 69 l 486 0 l 0 0 l 0 694 l 278 694 l 278 208 l 347 208 l 347 278 l 417 278 l 417 347 l 486 347 l 486 694 l 764 694 l 764 278 l 694 278 l 694 208 l 625 208 l 625 139 l 556 139 l 556 69 l 486 69 "},"W":{"ha":972,"x_min":0,"x_max":903,"o":"m 278 69 l 278 0 l 0 0 l 0 694 l 278 694 l 278 347 l 347 347 l 347 417 l 417 417 l 417 486 l 486 486 l 486 417 l 556 417 l 556 347 l 625 347 l 625 694 l 903 694 l 903 0 l 625 0 l 625 69 l 556 69 l 556 139 l 486 139 l 486 208 l 417 208 l 417 139 l 347 139 l 347 69 l 278 69 "},"X":{"ha":833,"x_min":0,"x_max":764,"o":"m 0 0 l 0 208 l 69 208 l 69 278 l 139 278 l 139 417 l 69 417 l 69 486 l 0 486 l 0 694 l 208 694 l 208 625 l 278 625 l 278 556 l 347 556 l 347 486 l 417 486 l 417 556 l 486 556 l 486 625 l 556 625 l 556 694 l 764 694 l 764 486 l 694 486 l 694 417 l 625 417 l 625 278 l 694 278 l 694 208 l 764 208 l 764 0 l 556 0 l 556 69 l 486 69 l 486 139 l 417 139 l 417 208 l 347 208 l 347 139 l 278 139 l 278 69 l 208 69 l 208 0 l 0 0 "},"Y":{"ha":903,"x_min":0,"x_max":833,"o":"m 0 417 l 0 694 l 278 694 l 278 486 l 347 486 l 347 417 l 486 417 l 486 486 l 556 486 l 556 694 l 833 694 l 833 417 l 764 417 l 764 347 l 694 347 l 694 278 l 556 278 l 556 0 l 278 0 l 278 278 l 139 278 l 139 347 l 69 347 l 69 417 l 0 417 "},"Z":{"ha":833,"x_min":0,"x_max":764,"o":"m 0 556 l 0 694 l 764 694 l 764 486 l 694 486 l 694 417 l 625 417 l 625 347 l 556 347 l 556 278 l 486 278 l 486 208 l 417 208 l 417 139 l 764 139 l 764 0 l 0 0 l 0 139 l 69 139 l 69 208 l 139 208 l 139 278 l 208 278 l 208 347 l 278 347 l 278 417 l 347 417 l 347 486 l 417 486 l 417 556 l 0 556 "},"[":{"ha":556,"x_min":0,"x_max":486,"o":"m 278 556 l 278 139 l 486 139 l 486 0 l 0 0 l 0 694 l 486 694 l 486 556 l 278 556 "},"\\":{"ha":903,"x_min":0,"x_max":833,"o":"m 0 556 l 0 694 l 278 694 l 278 625 l 347 625 l 347 556 l 417 556 l 417 486 l 486 486 l 486 417 l 556 417 l 556 347 l 625 347 l 625 278 l 694 278 l 694 208 l 764 208 l 764 139 l 833 139 l 833 0 l 556 0 l 556 69 l 486 69 l 486 139 l 417 139 l 417 208 l 347 208 l 347 278 l 278 278 l 278 347 l 208 347 l 208 417 l 139 417 l 139 486 l 69 486 l 69 556 l 0 556 "},"]":{"ha":556,"x_min":0,"x_max":486,"o":"m 0 0 l 0 139 l 208 139 l 208 556 l 0 556 l 0 694 l 486 694 l 486 0 l 0 0 "},"^":{"ha":694,"x_min":0,"x_max":625,"o":"m 208 347 l 208 278 l 0 278 l 0 486 l 69 486 l 69 556 l 139 556 l 139 625 l 208 625 l 208 694 l 417 694 l 417 625 l 486 625 l 486 556 l 556 556 l 556 486 l 625 486 l 625 278 l 417 278 l 417 347 l 347 347 l 347 417 l 278 417 l 278 347 l 208 347 "},"_":{"ha":833,"x_min":0,"x_max":764,"o":"m 0 -208 l 0 -69 l 764 -69 l 764 -208 l 0 -208 "},"`":{"ha":278,"x_min":0,"x_max":208,"o":"m 0 556 l 0 694 l 208 694 l 208 556 l 0 556 "},"a":{"ha":833,"x_min":0,"x_max":764,"o":"m 278 278 l 278 0 l 0 0 l 0 625 l 69 625 l 69 694 l 486 694 l 694 694 l 694 625 l 764 625 l 764 0 l 486 0 l 486 278 l 278 278 m 278 556 l 278 417 l 486 417 l 486 556 l 278 556 "},"b":{"ha":833,"x_min":0,"x_max":764,"o":"m 694 69 l 694 0 l 0 0 l 0 694 l 278 694 l 694 694 l 694 625 l 764 625 l 764 417 l 694 417 l 694 278 l 764 278 l 764 69 l 694 69 m 278 278 l 278 139 l 486 139 l 486 278 l 278 278 m 278 556 l 278 417 l 486 417 l 486 556 l 278 556 "},"c":{"ha":833,"x_min":0,"x_max":764,"o":"m 694 69 l 694 0 l 69 0 l 69 69 l 0 69 l 0 625 l 69 625 l 69 694 l 278 694 l 694 694 l 694 625 l 764 625 l 764 417 l 486 417 l 486 556 l 278 556 l 278 139 l 486 139 l 486 278 l 694 278 l 764 278 l 764 69 l 694 69 "},"d":{"ha":833,"x_min":0,"x_max":764,"o":"m 625 69 l 625 0 l 0 0 l 0 694 l 417 694 l 486 694 l 625 694 l 625 625 l 694 625 l 694 556 l 764 556 l 764 139 l 694 139 l 694 69 l 625 69 m 417 486 l 417 556 l 278 556 l 278 139 l 417 139 l 417 208 l 486 208 l 486 486 l 417 486 "},"e":{"ha":833,"x_min":0,"x_max":764,"o":"m 69 0 l 69 69 l 0 69 l 0 625 l 69 625 l 69 694 l 764 694 l 764 556 l 278 556 l 278 417 l 486 417 l 486 278 l 278 278 l 278 139 l 764 139 l 764 0 l 69 0 "},"f":{"ha":833,"x_min":0,"x_max":764,"o":"m 278 278 l 278 0 l 0 0 l 0 625 l 69 625 l 69 694 l 278 694 l 764 694 l 764 556 l 278 556 l 278 417 l 486 417 l 486 278 l 278 278 "},"g":{"ha":833,"x_min":0,"x_max":764,"o":"m 694 69 l 694 0 l 69 0 l 69 69 l 0 69 l 0 625 l 69 625 l 69 694 l 764 694 l 764 556 l 278 556 l 278 139 l 486 139 l 486 278 l 347 278 l 347 417 l 694 417 l 694 347 l 764 347 l 764 69 l 694 69 "},"h":{"ha":833,"x_min":0,"x_max":764,"o":"m 278 278 l 278 0 l 0 0 l 0 694 l 278 694 l 278 417 l 486 417 l 486 694 l 764 694 l 764 0 l 486 0 l 486 278 l 278 278 "},"i":{"ha":764,"x_min":0,"x_max":694,"o":"m 0 556 l 0 694 l 694 694 l 694 556 l 486 556 l 486 139 l 694 139 l 694 0 l 0 0 l 0 139 l 208 139 l 208 556 l 0 556 "},"j":{"ha":833,"x_min":0,"x_max":764,"o":"m 694 69 l 694 0 l 69 0 l 69 69 l 0 69 l 0 278 l 278 278 l 278 139 l 486 139 l 486 694 l 694 694 l 764 694 l 764 69 l 694 69 "},"k":{"ha":903,"x_min":0,"x_max":833,"o":"m 278 208 l 278 0 l 0 0 l 0 694 l 278 694 l 278 486 l 347 486 l 347 556 l 417 556 l 417 625 l 486 625 l 486 694 l 764 694 l 833 694 l 833 556 l 764 556 l 764 486 l 694 486 l 694 417 l 625 417 l 625 278 l 694 278 l 694 208 l 764 208 l 764 139 l 833 139 l 833 0 l 486 0 l 486 69 l 417 69 l 417 139 l 347 139 l 347 208 l 278 208 "},"l":{"ha":833,"x_min":0,"x_max":764,"o":"m 0 0 l 0 694 l 278 694 l 278 139 l 764 139 l 764 0 l 0 0 "},"m":{"ha":972,"x_min":0,"x_max":903,"o":"m 278 347 l 278 0 l 0 0 l 0 694 l 278 694 l 278 625 l 347 625 l 347 556 l 417 556 l 417 486 l 486 486 l 486 556 l 556 556 l 556 625 l 625 625 l 625 694 l 903 694 l 903 0 l 625 0 l 625 347 l 556 347 l 556 278 l 486 278 l 486 208 l 417 208 l 417 278 l 347 278 l 347 347 l 278 347 "},"n":{"ha":833,"x_min":0,"x_max":764,"o":"m 278 347 l 278 0 l 0 0 l 0 694 l 278 694 l 278 625 l 347 625 l 347 556 l 417 556 l 417 486 l 486 486 l 486 694 l 764 694 l 764 0 l 486 0 l 486 208 l 417 208 l 417 278 l 347 278 l 347 347 l 278 347 "},"o":{"ha":833,"x_min":0,"x_max":764,"o":"m 694 69 l 694 0 l 69 0 l 69 69 l 0 69 l 0 625 l 69 625 l 69 694 l 694 694 l 694 625 l 764 625 l 764 69 l 694 69 m 486 278 l 486 417 l 486 556 l 278 556 l 278 139 l 486 139 l 486 278 "},"p":{"ha":833,"x_min":0,"x_max":764,"o":"m 278 278 l 278 0 l 0 0 l 0 694 l 278 694 l 486 694 l 694 694 l 694 625 l 764 625 l 764 347 l 694 347 l 694 278 l 278 278 m 278 556 l 278 417 l 486 417 l 486 556 l 278 556 "},"q":{"ha":833,"x_min":0,"x_max":764,"o":"m 278 -139 l 278 0 l 69 0 l 69 69 l 0 69 l 0 625 l 69 625 l 69 694 l 694 694 l 694 625 l 764 625 l 764 69 l 694 69 l 694 0 l 486 0 l 486 -139 l 278 -139 m 486 556 l 278 556 l 278 139 l 486 139 l 486 556 "},"r":{"ha":833,"x_min":0,"x_max":764,"o":"m 278 278 l 278 0 l 0 0 l 0 694 l 278 694 l 486 694 l 694 694 l 694 625 l 764 625 l 764 417 l 694 417 l 694 278 l 764 278 l 764 0 l 486 0 l 486 278 l 278 278 m 278 556 l 278 417 l 486 417 l 486 556 l 278 556 "},"s":{"ha":833,"x_min":0,"x_max":764,"o":"m 0 0 l 0 139 l 486 139 l 486 278 l 69 278 l 69 347 l 0 347 l 0 625 l 69 625 l 69 694 l 764 694 l 764 556 l 278 556 l 278 417 l 486 417 l 694 417 l 694 347 l 764 347 l 764 69 l 694 69 l 694 0 l 0 0 "},"t":{"ha":764,"x_min":0,"x_max":694,"o":"m 486 556 l 486 0 l 208 0 l 208 556 l 0 556 l 0 694 l 694 694 l 694 556 l 486 556 "},"u":{"ha":833,"x_min":0,"x_max":764,"o":"m 694 69 l 694 0 l 69 0 l 69 69 l 0 69 l 0 694 l 278 694 l 278 139 l 486 139 l 486 694 l 764 694 l 764 69 l 694 69 "},"v":{"ha":833,"x_min":0,"x_max":764,"o":"m 486 69 l 486 0 l 0 0 l 0 694 l 278 694 l 278 208 l 347 208 l 347 278 l 417 278 l 417 347 l 486 347 l 486 694 l 764 694 l 764 278 l 694 278 l 694 208 l 625 208 l 625 139 l 556 139 l 556 69 l 486 69 "},"w":{"ha":972,"x_min":0,"x_max":903,"o":"m 278 69 l 278 0 l 0 0 l 0 694 l 278 694 l 278 347 l 347 347 l 347 417 l 417 417 l 417 486 l 486 486 l 486 417 l 556 417 l 556 347 l 625 347 l 625 694 l 903 694 l 903 0 l 625 0 l 625 69 l 556 69 l 556 139 l 486 139 l 486 208 l 417 208 l 417 139 l 347 139 l 347 69 l 278 69 "},"x":{"ha":833,"x_min":0,"x_max":764,"o":"m 0 0 l 0 208 l 69 208 l 69 278 l 139 278 l 139 417 l 69 417 l 69 486 l 0 486 l 0 694 l 208 694 l 208 625 l 278 625 l 278 556 l 347 556 l 347 486 l 417 486 l 417 556 l 486 556 l 486 625 l 556 625 l 556 694 l 764 694 l 764 486 l 694 486 l 694 417 l 625 417 l 625 278 l 694 278 l 694 208 l 764 208 l 764 0 l 556 0 l 556 69 l 486 69 l 486 139 l 417 139 l 417 208 l 347 208 l 347 139 l 278 139 l 278 69 l 208 69 l 208 0 l 0 0 "},"y":{"ha":903,"x_min":0,"x_max":833,"o":"m 0 417 l 0 694 l 278 694 l 278 486 l 347 486 l 347 417 l 486 417 l 486 486 l 556 486 l 556 694 l 833 694 l 833 417 l 764 417 l 764 347 l 694 347 l 694 278 l 556 278 l 556 0 l 278 0 l 278 278 l 139 278 l 139 347 l 69 347 l 69 417 l 0 417 "},"z":{"ha":833,"x_min":0,"x_max":764,"o":"m 0 556 l 0 694 l 764 694 l 764 486 l 694 486 l 694 417 l 625 417 l 625 347 l 556 347 l 556 278 l 486 278 l 486 208 l 417 208 l 417 139 l 764 139 l 764 0 l 0 0 l 0 139 l 69 139 l 69 208 l 139 208 l 139 278 l 208 278 l 208 347 l 278 347 l 278 417 l 347 417 l 347 486 l 417 486 l 417 556 l 0 556 "},"{":{"ha":625,"x_min":0,"x_max":556,"o":"m 69 69 l 69 278 l 0 278 l 0 417 l 69 417 l 69 625 l 139 625 l 139 694 l 556 694 l 556 556 l 347 556 l 347 417 l 278 417 l 278 278 l 347 278 l 347 139 l 556 139 l 556 0 l 139 0 l 139 69 l 69 69 "},"|":{"ha":347,"x_min":0,"x_max":278,"o":"m 0 -69 l 0 764 l 278 764 l 278 -69 l 0 -69 "},"}":{"ha":625,"x_min":0,"x_max":556,"o":"m 208 417 l 208 556 l 0 556 l 0 694 l 417 694 l 417 625 l 486 625 l 486 417 l 556 417 l 556 278 l 486 278 l 486 69 l 417 69 l 417 0 l 0 0 l 0 139 l 208 139 l 208 278 l 278 278 l 278 417 l 208 417 "},"~":{"ha":1042,"x_min":0,"x_max":972,"o":"m 278 347 l 278 139 l 0 139 l 0 417 l 69 417 l 69 486 l 139 486 l 139 556 l 486 556 l 486 486 l 556 486 l 556 417 l 625 417 l 625 347 l 694 347 l 694 556 l 972 556 l 972 278 l 903 278 l 903 208 l 833 208 l 833 139 l 486 139 l 486 208 l 417 208 l 417 278 l 347 278 l 347 347 l 278 347 "},"":{"ha":833,"x_min":0,"x_max":764,"o":"m 0 694 l 764 694 l 764 0 l 0 0 l 0 694 m 69 139 l 69 69 l 208 69 l 208 139 l 278 139 l 278 208 l 347 208 l 347 278 l 417 278 l 417 208 l 486 208 l 486 139 l 556 139 l 556 69 l 694 69 l 694 139 l 625 139 l 625 208 l 556 208 l 556 278 l 486 278 l 486 417 l 556 417 l 556 486 l 625 486 l 625 556 l 694 556 l 694 625 l 556 625 l 556 556 l 486 556 l 486 486 l 417 486 l 417 417 l 347 417 l 347 486 l 278 486 l 278 556 l 208 556 l 208 625 l 69 625 l 69 556 l 139 556 l 139 486 l 208 486 l 208 417 l 278 417 l 278 278 l 208 278 l 208 208 l 139 208 l 139 139 l 69 139 "},"":{"ha":833,"x_min":0,"x_max":764,"o":"m 0 694 l 764 694 l 764 0 l 0 0 l 0 694 m 69 139 l 69 69 l 208 69 l 208 139 l 278 139 l 278 208 l 347 208 l 347 278 l 417 278 l 417 208 l 486 208 l 486 139 l 556 139 l 556 69 l 694 69 l 694 139 l 625 139 l 625 208 l 556 208 l 556 278 l 486 278 l 486 417 l 556 417 l 556 486 l 625 486 l 625 556 l 694 556 l 694 625 l 556 625 l 556 556 l 486 556 l 486 486 l 417 486 l 417 417 l 347 417 l 347 486 l 278 486 l 278 556 l 208 556 l 208 625 l 69 625 l 69 556 l 139 556 l 139 486 l 208 486 l 208 417 l 278 417 l 278 278 l 208 278 l 208 208 l 139 208 l 139 139 l 69 139 "},"":{"ha":833,"x_min":0,"x_max":764,"o":"m 0 694 l 764 694 l 764 0 l 0 0 l 0 694 m 69 139 l 69 69 l 208 69 l 208 139 l 278 139 l 278 208 l 347 208 l 347 278 l 417 278 l 417 208 l 486 208 l 486 139 l 556 139 l 556 69 l 694 69 l 694 139 l 625 139 l 625 208 l 556 208 l 556 278 l 486 278 l 486 417 l 556 417 l 556 486 l 625 486 l 625 556 l 694 556 l 694 625 l 556 625 l 556 556 l 486 556 l 486 486 l 417 486 l 417 417 l 347 417 l 347 486 l 278 486 l 278 556 l 208 556 l 208 625 l 69 625 l 69 556 l 139 556 l 139 486 l 208 486 l 208 417 l 278 417 l 278 278 l 208 278 l 208 208 l 139 208 l 139 139 l 69 139 "},"‚":{"ha":278,"x_min":0,"x_max":208,"o":"m 0 -139 l 0 139 l 208 139 l 208 -139 l 0 -139 "},"ƒ":{"ha":625,"x_min":0,"x_max":556,"o":"m 347 278 l 347 -69 l 278 -69 l 278 -139 l 0 -139 l 0 -69 l 69 -69 l 69 278 l 0 278 l 0 417 l 69 417 l 69 625 l 139 625 l 139 694 l 556 694 l 556 556 l 347 556 l 347 417 l 417 417 l 417 278 l 347 278 "},"„":{"ha":556,"x_min":0,"x_max":486,"o":"m 0 -139 l 0 139 l 208 139 l 208 -139 l 0 -139 m 278 -139 l 278 139 l 486 139 l 486 -139 l 278 -139 "},"…":{"ha":625,"x_min":0,"x_max":556,"o":"m 0 0 l 0 139 l 139 139 l 139 0 l 0 0 m 208 0 l 208 139 l 347 139 l 347 0 l 208 0 m 417 0 l 417 139 l 556 139 l 556 0 l 417 0 "},"†":{"ha":833,"x_min":0,"x_max":764,"o":"m 486 417 l 486 0 l 278 0 l 278 417 l 0 417 l 0 556 l 278 556 l 278 694 l 486 694 l 486 556 l 764 556 l 764 417 l 486 417 "},"‡":{"ha":833,"x_min":0,"x_max":764,"o":"m 0 139 l 0 278 l 278 278 l 278 417 l 0 417 l 0 556 l 278 556 l 278 694 l 486 694 l 486 556 l 764 556 l 764 417 l 486 417 l 486 278 l 764 278 l 764 139 l 486 139 l 486 0 l 278 0 l 278 139 l 0 139 "},"ˆ":{"ha":556,"x_min":0,"x_max":486,"o":"m 278 833 l 278 903 l 208 903 l 208 833 l 139 833 l 139 764 l 0 764 l 0 833 l 69 833 l 69 903 l 139 903 l 139 972 l 208 972 l 208 1042 l 278 1042 l 278 972 l 347 972 l 347 903 l 417 903 l 417 833 l 486 833 l 486 764 l 347 764 l 347 833 l 278 833 "},"‰":{"ha":1319,"x_min":0,"x_max":1250,"o":"m 0 486 l 0 694 l 347 694 l 347 486 l 417 486 l 417 556 l 486 556 l 486 625 l 556 625 l 556 694 l 833 694 l 833 556 l 764 556 l 764 486 l 694 486 l 694 417 l 625 417 l 625 347 l 556 347 l 556 278 l 486 278 l 486 208 l 833 208 l 833 0 l 486 0 l 486 208 l 417 208 l 417 139 l 347 139 l 347 69 l 278 69 l 278 0 l 0 0 l 0 139 l 69 139 l 69 208 l 139 208 l 139 278 l 208 278 l 208 347 l 278 347 l 278 417 l 347 417 l 347 486 l 0 486 m 903 0 l 903 208 l 1250 208 l 1250 0 l 903 0 m 625 139 l 625 69 l 694 69 l 694 139 l 625 139 m 139 625 l 139 556 l 208 556 l 208 625 l 139 625 m 1042 139 l 1042 69 l 1111 69 l 1111 139 l 1042 139 "},"Š":{"ha":833,"x_min":0,"x_max":764,"o":"m 0 0 l 0 139 l 486 139 l 486 278 l 69 278 l 69 347 l 0 347 l 0 625 l 69 625 l 69 694 l 764 694 l 764 556 l 278 556 l 278 417 l 694 417 l 694 347 l 764 347 l 764 69 l 694 69 l 694 0 l 0 0 m 486 972 l 486 1042 l 625 1042 l 625 972 l 556 972 l 556 903 l 486 903 l 486 833 l 417 833 l 417 764 l 347 764 l 347 833 l 278 833 l 278 903 l 208 903 l 208 972 l 139 972 l 139 1042 l 278 1042 l 278 972 l 347 972 l 347 903 l 417 903 l 417 972 l 486 972 "},"‹":{"ha":417,"x_min":0,"x_max":347,"o":"m 69 208 l 69 278 l 0 278 l 0 417 l 69 417 l 69 486 l 139 486 l 139 556 l 208 556 l 208 625 l 347 625 l 347 486 l 278 486 l 278 417 l 208 417 l 208 278 l 278 278 l 278 208 l 347 208 l 347 69 l 208 69 l 208 139 l 139 139 l 139 208 l 69 208 "},"Œ":{"ha":972,"x_min":0,"x_max":903,"o":"m 556 278 l 556 139 l 903 139 l 903 0 l 69 0 l 69 69 l 0 69 l 0 625 l 69 625 l 69 694 l 903 694 l 903 556 l 556 556 l 556 417 l 694 417 l 694 278 l 556 278 m 208 556 l 208 139 l 347 139 l 347 556 l 208 556 "},"":{"ha":833,"x_min":0,"x_max":764,"o":"m 0 694 l 764 694 l 764 0 l 0 0 l 0 694 m 69 139 l 69 69 l 208 69 l 208 139 l 278 139 l 278 208 l 347 208 l 347 278 l 417 278 l 417 208 l 486 208 l 486 139 l 556 139 l 556 69 l 694 69 l 694 139 l 625 139 l 625 208 l 556 208 l 556 278 l 486 278 l 486 417 l 556 417 l 556 486 l 625 486 l 625 556 l 694 556 l 694 625 l 556 625 l 556 556 l 486 556 l 486 486 l 417 486 l 417 417 l 347 417 l 347 486 l 278 486 l 278 556 l 208 556 l 208 625 l 69 625 l 69 556 l 139 556 l 139 486 l 208 486 l 208 417 l 278 417 l 278 278 l 208 278 l 208 208 l 139 208 l 139 139 l 69 139 "},"":{"ha":833,"x_min":0,"x_max":764,"o":"m 0 694 l 764 694 l 764 0 l 0 0 l 0 694 m 69 139 l 69 69 l 208 69 l 208 139 l 278 139 l 278 208 l 347 208 l 347 278 l 417 278 l 417 208 l 486 208 l 486 139 l 556 139 l 556 69 l 694 69 l 694 139 l 625 139 l 625 208 l 556 208 l 556 278 l 486 278 l 486 417 l 556 417 l 556 486 l 625 486 l 625 556 l 694 556 l 694 625 l 556 625 l 556 556 l 486 556 l 486 486 l 417 486 l 417 417 l 347 417 l 347 486 l 278 486 l 278 556 l 208 556 l 208 625 l 69 625 l 69 556 l 139 556 l 139 486 l 208 486 l 208 417 l 278 417 l 278 278 l 208 278 l 208 208 l 139 208 l 139 139 l 69 139 "},"":{"ha":833,"x_min":0,"x_max":764,"o":"m 0 694 l 764 694 l 764 0 l 0 0 l 0 694 m 69 139 l 69 69 l 208 69 l 208 139 l 278 139 l 278 208 l 347 208 l 347 278 l 417 278 l 417 208 l 486 208 l 486 139 l 556 139 l 556 69 l 694 69 l 694 139 l 625 139 l 625 208 l 556 208 l 556 278 l 486 278 l 486 417 l 556 417 l 556 486 l 625 486 l 625 556 l 694 556 l 694 625 l 556 625 l 556 556 l 486 556 l 486 486 l 417 486 l 417 417 l 347 417 l 347 486 l 278 486 l 278 556 l 208 556 l 208 625 l 69 625 l 69 556 l 139 556 l 139 486 l 208 486 l 208 417 l 278 417 l 278 278 l 208 278 l 208 208 l 139 208 l 139 139 l 69 139 "},"":{"ha":833,"x_min":0,"x_max":764,"o":"m 0 694 l 764 694 l 764 0 l 0 0 l 0 694 m 69 139 l 69 69 l 208 69 l 208 139 l 278 139 l 278 208 l 347 208 l 347 278 l 417 278 l 417 208 l 486 208 l 486 139 l 556 139 l 556 69 l 694 69 l 694 139 l 625 139 l 625 208 l 556 208 l 556 278 l 486 278 l 486 417 l 556 417 l 556 486 l 625 486 l 625 556 l 694 556 l 694 625 l 556 625 l 556 556 l 486 556 l 486 486 l 417 486 l 417 417 l 347 417 l 347 486 l 278 486 l 278 556 l 208 556 l 208 625 l 69 625 l 69 556 l 139 556 l 139 486 l 208 486 l 208 417 l 278 417 l 278 278 l 208 278 l 208 208 l 139 208 l 139 139 l 69 139 "},"‘":{"ha":347,"x_min":0,"x_max":278,"o":"m 0 556 l 0 833 l 139 833 l 139 694 l 278 694 l 278 556 l 0 556 "},"’":{"ha":347,"x_min":0,"x_max":278,"o":"m 0 694 l 0 833 l 278 833 l 278 556 l 139 556 l 139 694 l 0 694 "},"“":{"ha":694,"x_min":0,"x_max":625,"o":"m 0 556 l 0 833 l 139 833 l 139 694 l 278 694 l 278 556 l 0 556 m 347 556 l 347 833 l 486 833 l 486 694 l 625 694 l 625 556 l 347 556 "},"”":{"ha":694,"x_min":0,"x_max":625,"o":"m 0 694 l 0 833 l 278 833 l 278 556 l 139 556 l 139 694 l 0 694 m 347 694 l 347 833 l 625 833 l 625 556 l 486 556 l 486 694 l 347 694 "},"•":{"ha":556,"x_min":0,"x_max":486,"o":"m 208 556 l 208 625 l 278 625 l 278 556 l 347 556 l 347 486 l 417 486 l 417 417 l 486 417 l 486 278 l 417 278 l 417 208 l 347 208 l 347 139 l 278 139 l 278 69 l 208 69 l 208 139 l 139 139 l 139 208 l 69 208 l 69 278 l 0 278 l 0 417 l 69 417 l 69 486 l 139 486 l 139 556 l 208 556 "},"–":{"ha":347,"x_min":0,"x_max":278,"o":"m 0 278 l 0 417 l 278 417 l 278 278 l 0 278 "},"—":{"ha":833,"x_min":0,"x_max":764,"o":"m 0 278 l 0 417 l 764 417 l 764 278 l 0 278 "},"˜":{"ha":556,"x_min":0,"x_max":486,"o":"m 139 903 l 139 764 l 0 764 l 0 972 l 69 972 l 69 1042 l 208 1042 l 208 972 l 278 972 l 278 903 l 347 903 l 347 1042 l 486 1042 l 486 833 l 417 833 l 417 764 l 278 764 l 278 833 l 208 833 l 208 903 l 139 903 "},"™":{"ha":1042,"x_min":0,"x_max":972,"o":"m 625 486 l 625 347 l 486 347 l 486 694 l 625 694 l 625 625 l 694 625 l 694 556 l 764 556 l 764 625 l 833 625 l 833 694 l 972 694 l 972 347 l 833 347 l 833 486 l 764 486 l 764 417 l 694 417 l 694 486 l 625 486 m 0 556 l 0 694 l 417 694 l 417 556 l 278 556 l 278 347 l 139 347 l 139 556 l 0 556 "},"š":{"ha":833,"x_min":0,"x_max":764,"o":"m 0 0 l 0 139 l 486 139 l 486 278 l 69 278 l 69 347 l 0 347 l 0 625 l 69 625 l 69 694 l 764 694 l 764 556 l 278 556 l 278 417 l 694 417 l 694 347 l 764 347 l 764 69 l 694 69 l 694 0 l 0 0 m 486 972 l 486 1042 l 625 1042 l 625 972 l 556 972 l 556 903 l 486 903 l 486 833 l 417 833 l 417 764 l 347 764 l 347 833 l 278 833 l 278 903 l 208 903 l 208 972 l 139 972 l 139 1042 l 278 1042 l 278 972 l 347 972 l 347 903 l 417 903 l 417 972 l 486 972 "},"›":{"ha":417,"x_min":0,"x_max":347,"o":"m 69 417 l 69 486 l 0 486 l 0 625 l 139 625 l 139 556 l 208 556 l 208 486 l 278 486 l 278 417 l 347 417 l 347 278 l 278 278 l 278 208 l 208 208 l 208 139 l 139 139 l 139 69 l 0 69 l 0 208 l 69 208 l 69 278 l 139 278 l 139 417 l 69 417 "},"œ":{"ha":972,"x_min":0,"x_max":903,"o":"m 556 278 l 556 139 l 903 139 l 903 0 l 69 0 l 69 69 l 0 69 l 0 625 l 69 625 l 69 694 l 903 694 l 903 556 l 556 556 l 556 417 l 694 417 l 694 278 l 556 278 m 208 556 l 208 139 l 347 139 l 347 556 l 208 556 "},"":{"ha":833,"x_min":0,"x_max":764,"o":"m 0 694 l 764 694 l 764 0 l 0 0 l 0 694 m 69 139 l 69 69 l 208 69 l 208 139 l 278 139 l 278 208 l 347 208 l 347 278 l 417 278 l 417 208 l 486 208 l 486 139 l 556 139 l 556 69 l 694 69 l 694 139 l 625 139 l 625 208 l 556 208 l 556 278 l 486 278 l 486 417 l 556 417 l 556 486 l 625 486 l 625 556 l 694 556 l 694 625 l 556 625 l 556 556 l 486 556 l 486 486 l 417 486 l 417 417 l 347 417 l 347 486 l 278 486 l 278 556 l 208 556 l 208 625 l 69 625 l 69 556 l 139 556 l 139 486 l 208 486 l 208 417 l 278 417 l 278 278 l 208 278 l 208 208 l 139 208 l 139 139 l 69 139 "},"":{"ha":833,"x_min":0,"x_max":764,"o":"m 0 694 l 764 694 l 764 0 l 0 0 l 0 694 m 69 139 l 69 69 l 208 69 l 208 139 l 278 139 l 278 208 l 347 208 l 347 278 l 417 278 l 417 208 l 486 208 l 486 139 l 556 139 l 556 69 l 694 69 l 694 139 l 625 139 l 625 208 l 556 208 l 556 278 l 486 278 l 486 417 l 556 417 l 556 486 l 625 486 l 625 556 l 694 556 l 694 625 l 556 625 l 556 556 l 486 556 l 486 486 l 417 486 l 417 417 l 347 417 l 347 486 l 278 486 l 278 556 l 208 556 l 208 625 l 69 625 l 69 556 l 139 556 l 139 486 l 208 486 l 208 417 l 278 417 l 278 278 l 208 278 l 208 208 l 139 208 l 139 139 l 69 139 "},"Ÿ":{"ha":903,"x_min":0,"x_max":833,"o":"m 0 417 l 0 694 l 278 694 l 278 486 l 347 486 l 347 417 l 486 417 l 486 486 l 556 486 l 556 694 l 833 694 l 833 417 l 764 417 l 764 347 l 694 347 l 694 278 l 556 278 l 556 0 l 278 0 l 278 278 l 139 278 l 139 347 l 69 347 l 69 417 l 0 417 m 486 833 l 486 1042 l 694 1042 l 694 833 l 486 833 m 139 833 l 139 1042 l 347 1042 l 347 833 l 139 833 "}," ":{"ha":486,"x_min":0,"x_max":0,"o":""},"¡":{"ha":347,"x_min":0,"x_max":278,"o":"m 0 0 l 0 486 l 278 486 l 278 0 l 0 0 m 0 556 l 0 694 l 278 694 l 278 556 l 0 556 "},"¢":{"ha":833,"x_min":0,"x_max":764,"o":"m 278 -139 l 278 0 l 69 0 l 69 69 l 0 69 l 0 625 l 69 625 l 69 694 l 278 694 l 278 833 l 486 833 l 486 694 l 694 694 l 694 625 l 764 625 l 764 417 l 486 417 l 486 556 l 278 556 l 278 139 l 486 139 l 486 278 l 764 278 l 764 69 l 694 69 l 694 0 l 486 0 l 486 -139 l 278 -139 "},"£":{"ha":903,"x_min":0,"x_max":833,"o":"m 694 69 l 694 0 l 0 0 l 0 139 l 69 139 l 69 278 l 0 278 l 0 417 l 69 417 l 69 556 l 139 556 l 139 625 l 208 625 l 208 694 l 764 694 l 764 625 l 833 625 l 833 486 l 764 486 l 764 417 l 625 417 l 625 486 l 556 486 l 556 556 l 417 556 l 417 486 l 347 486 l 347 417 l 417 417 l 417 278 l 347 278 l 347 139 l 556 139 l 556 208 l 833 208 l 833 69 l 694 69 "},"¤":{"ha":764,"x_min":0,"x_max":694,"o":"m 69 208 l 69 486 l 139 486 l 139 556 l 0 556 l 0 694 l 139 694 l 139 556 l 208 556 l 208 625 l 486 625 l 486 556 l 556 556 l 556 486 l 625 486 l 625 208 l 556 208 l 556 139 l 694 139 l 694 0 l 556 0 l 556 139 l 486 139 l 486 69 l 208 69 l 208 139 l 139 139 l 139 208 l 69 208 m 0 0 l 0 139 l 139 139 l 139 0 l 0 0 m 556 556 l 556 694 l 694 694 l 694 556 l 556 556 m 278 417 l 278 278 l 417 278 l 417 417 l 278 417 "},"¥":{"ha":903,"x_min":0,"x_max":833,"o":"m 139 139 l 139 208 l 278 208 l 278 278 l 139 278 l 139 347 l 69 347 l 69 417 l 0 417 l 0 694 l 278 694 l 278 486 l 347 486 l 347 417 l 486 417 l 486 486 l 556 486 l 556 694 l 833 694 l 833 417 l 764 417 l 764 347 l 694 347 l 694 278 l 556 278 l 556 208 l 694 208 l 694 139 l 556 139 l 556 69 l 694 69 l 694 0 l 556 0 l 556 -139 l 278 -139 l 278 0 l 139 0 l 139 69 l 278 69 l 278 139 l 139 139 "},"¦":{"ha":347,"x_min":0,"x_max":278,"o":"m 0 417 l 0 833 l 278 833 l 278 417 l 0 417 m 0 -139 l 0 278 l 278 278 l 278 -139 l 0 -139 "},"§":{"ha":833,"x_min":0,"x_max":764,"o":"m 0 208 l 0 764 l 69 764 l 69 833 l 764 833 l 764 694 l 278 694 l 278 556 l 694 556 l 694 486 l 764 486 l 764 -69 l 694 -69 l 694 -139 l 0 -139 l 0 0 l 486 0 l 486 139 l 69 139 l 69 208 l 0 208 m 486 278 l 486 417 l 278 417 l 278 278 l 486 278 "},"¨":{"ha":625,"x_min":0,"x_max":556,"o":"m 0 833 l 0 1042 l 208 1042 l 208 833 l 0 833 m 347 833 l 347 1042 l 556 1042 l 556 833 l 347 833 "},"©":{"ha":1042,"x_min":0,"x_max":972,"o":"m 903 69 l 903 0 l 69 0 l 69 69 l 0 69 l 0 625 l 69 625 l 69 694 l 903 694 l 903 625 l 972 625 l 972 69 l 903 69 m 278 556 l 278 139 l 694 139 l 694 556 l 278 556 m 347 278 l 347 417 l 417 417 l 417 486 l 625 486 l 625 417 l 486 417 l 486 278 l 625 278 l 625 208 l 417 208 l 417 278 l 347 278 "},"ª":{"ha":486,"x_min":0,"x_max":417,"o":"m 0 625 l 0 694 l 417 694 l 417 347 l 0 347 l 0 556 l 278 556 l 278 625 l 0 625 m 278 417 l 278 486 l 139 486 l 139 417 l 278 417 "},"«":{"ha":764,"x_min":0,"x_max":694,"o":"m 69 208 l 69 278 l 0 278 l 0 417 l 69 417 l 69 486 l 139 486 l 139 556 l 208 556 l 208 625 l 347 625 l 347 486 l 278 486 l 278 417 l 208 417 l 208 278 l 278 278 l 278 208 l 347 208 l 347 69 l 208 69 l 208 139 l 139 139 l 139 208 l 69 208 m 417 208 l 417 278 l 347 278 l 347 417 l 417 417 l 417 486 l 486 486 l 486 556 l 556 556 l 556 625 l 694 625 l 694 486 l 625 486 l 625 417 l 556 417 l 556 278 l 625 278 l 625 208 l 694 208 l 694 69 l 556 69 l 556 139 l 486 139 l 486 208 l 417 208 "},"¬":{"ha":556,"x_min":0,"x_max":486,"o":"m 278 139 l 278 278 l 0 278 l 0 417 l 486 417 l 486 139 l 278 139 "},"­":{"ha":347,"x_min":0,"x_max":278,"o":"m 0 278 l 0 417 l 278 417 l 278 278 l 0 278 "},"®":{"ha":1042,"x_min":0,"x_max":972,"o":"m 903 69 l 903 0 l 69 0 l 69 69 l 0 69 l 0 625 l 69 625 l 69 694 l 903 694 l 903 625 l 972 625 l 972 69 l 903 69 m 278 556 l 278 139 l 694 139 l 694 556 l 278 556 m 486 278 l 486 208 l 347 208 l 347 486 l 625 486 l 625 347 l 556 347 l 556 417 l 486 417 l 486 347 l 556 347 l 556 278 l 625 278 l 625 208 l 556 208 l 556 278 l 486 278 "},"¯":{"ha":833,"x_min":0,"x_max":764,"o":"m 0 764 l 0 903 l 764 903 l 764 764 l 0 764 "},"°":{"ha":556,"x_min":0,"x_max":486,"o":"m 0 764 l 0 1042 l 486 1042 l 486 764 l 0 764 m 139 972 l 139 833 l 347 833 l 347 972 l 139 972 "},"±":{"ha":833,"x_min":0,"x_max":764,"o":"m 0 417 l 0 556 l 278 556 l 278 694 l 486 694 l 486 556 l 764 556 l 764 417 l 486 417 l 486 278 l 278 278 l 278 417 l 0 417 m 0 0 l 0 139 l 764 139 l 764 0 l 0 0 "},"²":{"ha":486,"x_min":0,"x_max":417,"o":"m 139 486 l 139 417 l 417 417 l 417 347 l 0 347 l 0 556 l 278 556 l 278 625 l 0 625 l 0 694 l 417 694 l 417 486 l 139 486 "},"³":{"ha":486,"x_min":0,"x_max":417,"o":"m 0 347 l 0 417 l 278 417 l 278 486 l 0 486 l 0 556 l 278 556 l 278 625 l 0 625 l 0 694 l 417 694 l 417 347 l 0 347 "},"´":{"ha":347,"x_min":0,"x_max":278,"o":"m 139 833 l 139 764 l 0 764 l 0 903 l 69 903 l 69 972 l 139 972 l 139 1042 l 278 1042 l 278 903 l 208 903 l 208 833 l 139 833 "},"µ":{"ha":833,"x_min":0,"x_max":764,"o":"m 0 694 l 278 694 l 278 139 l 486 139 l 486 694 l 764 694 l 764 69 l 694 69 l 694 0 l 278 0 l 278 -208 l 0 -208 l 0 694 "},"¶":{"ha":625,"x_min":0,"x_max":556,"o":"m 69 278 l 69 347 l 0 347 l 0 625 l 69 625 l 69 694 l 556 694 l 556 556 l 486 556 l 486 0 l 347 0 l 347 556 l 278 556 l 278 0 l 139 0 l 139 278 l 69 278 "},"·":{"ha":347,"x_min":0,"x_max":278,"o":"m 0 208 l 0 486 l 278 486 l 278 208 l 0 208 "},"¸":{"ha":347,"x_min":0,"x_max":278,"o":"m 0 -208 l 0 -139 l 69 -139 l 69 0 l 278 0 l 278 -139 l 208 -139 l 208 -208 l 0 -208 "},"¹":{"ha":208,"x_min":0,"x_max":139,"o":"m 0 347 l 0 694 l 139 694 l 139 347 l 0 347 "},"º":{"ha":486,"x_min":0,"x_max":417,"o":"m 0 347 l 0 694 l 417 694 l 417 347 l 0 347 m 139 625 l 139 417 l 278 417 l 278 625 l 139 625 "},"»":{"ha":764,"x_min":0,"x_max":694,"o":"m 69 417 l 69 486 l 0 486 l 0 625 l 139 625 l 139 556 l 208 556 l 208 486 l 278 486 l 278 417 l 347 417 l 347 278 l 278 278 l 278 208 l 208 208 l 208 139 l 139 139 l 139 69 l 0 69 l 0 208 l 69 208 l 69 278 l 139 278 l 139 417 l 69 417 m 417 417 l 417 486 l 347 486 l 347 625 l 486 625 l 486 556 l 556 556 l 556 486 l 625 486 l 625 417 l 694 417 l 694 278 l 625 278 l 625 208 l 556 208 l 556 139 l 486 139 l 486 69 l 347 69 l 347 208 l 417 208 l 417 278 l 486 278 l 486 417 l 417 417 "},"¼":{"ha":903,"x_min":0,"x_max":833,"o":"m 556 69 l 556 278 l 486 278 l 486 208 l 417 208 l 417 139 l 347 139 l 347 69 l 278 69 l 278 0 l 0 0 l 0 139 l 69 139 l 69 208 l 139 208 l 139 278 l 208 278 l 208 347 l 278 347 l 278 417 l 347 417 l 347 486 l 417 486 l 417 556 l 486 556 l 486 625 l 556 625 l 556 694 l 833 694 l 833 556 l 764 556 l 764 486 l 694 486 l 694 417 l 625 417 l 625 347 l 556 347 l 556 278 l 625 278 l 625 139 l 694 139 l 694 278 l 833 278 l 833 0 l 694 0 l 694 69 l 556 69 m 69 417 l 69 556 l 0 556 l 0 625 l 69 625 l 69 694 l 208 694 l 208 417 l 69 417 "},"½":{"ha":903,"x_min":0,"x_max":833,"o":"m 556 208 l 556 278 l 486 278 l 486 208 l 417 208 l 417 139 l 347 139 l 347 69 l 278 69 l 278 0 l 0 0 l 0 139 l 69 139 l 69 208 l 139 208 l 139 278 l 208 278 l 208 347 l 278 347 l 278 417 l 347 417 l 347 486 l 417 486 l 417 556 l 486 556 l 486 625 l 556 625 l 556 694 l 833 694 l 833 556 l 764 556 l 764 486 l 694 486 l 694 417 l 625 417 l 625 347 l 556 347 l 556 278 l 833 278 l 833 139 l 694 139 l 694 208 l 556 208 m 69 417 l 69 556 l 0 556 l 0 625 l 69 625 l 69 694 l 208 694 l 208 417 l 69 417 m 556 0 l 556 139 l 694 139 l 694 69 l 833 69 l 833 0 l 556 0 "},"¾":{"ha":903,"x_min":0,"x_max":833,"o":"m 0 625 l 0 694 l 278 694 l 278 417 l 347 417 l 347 486 l 417 486 l 417 556 l 486 556 l 486 625 l 556 625 l 556 694 l 833 694 l 833 556 l 764 556 l 764 486 l 694 486 l 694 417 l 625 417 l 625 347 l 556 347 l 556 278 l 625 278 l 625 139 l 694 139 l 694 278 l 833 278 l 833 0 l 694 0 l 694 69 l 556 69 l 556 278 l 486 278 l 486 208 l 417 208 l 417 139 l 347 139 l 347 69 l 278 69 l 278 0 l 0 0 l 0 139 l 69 139 l 69 208 l 139 208 l 139 278 l 208 278 l 208 347 l 278 347 l 278 417 l 0 417 l 0 486 l 139 486 l 139 556 l 69 556 l 69 625 l 0 625 "},"¿":{"ha":833,"x_min":0,"x_max":764,"o":"m 69 0 l 69 69 l 0 69 l 0 347 l 69 347 l 69 417 l 278 417 l 278 486 l 486 486 l 486 347 l 417 347 l 417 278 l 278 278 l 278 139 l 486 139 l 486 278 l 764 278 l 764 69 l 694 69 l 694 0 l 69 0 m 278 556 l 278 694 l 486 694 l 486 556 l 278 556 "},"À":{"ha":833,"x_min":0,"x_max":764,"o":"m 278 278 l 278 0 l 0 0 l 0 625 l 69 625 l 69 694 l 694 694 l 694 625 l 764 625 l 764 0 l 486 0 l 486 278 l 278 278 m 208 903 l 208 1042 l 347 1042 l 347 972 l 417 972 l 417 903 l 486 903 l 486 764 l 347 764 l 347 833 l 278 833 l 278 903 l 208 903 m 278 556 l 278 417 l 486 417 l 486 556 l 278 556 "},"Á":{"ha":833,"x_min":0,"x_max":764,"o":"m 278 278 l 278 0 l 0 0 l 0 625 l 69 625 l 69 694 l 694 694 l 694 625 l 764 625 l 764 0 l 486 0 l 486 278 l 278 278 m 417 833 l 417 764 l 278 764 l 278 903 l 347 903 l 347 972 l 417 972 l 417 1042 l 556 1042 l 556 903 l 486 903 l 486 833 l 417 833 m 278 556 l 278 417 l 486 417 l 486 556 l 278 556 "},"Â":{"ha":833,"x_min":0,"x_max":764,"o":"m 278 278 l 278 0 l 0 0 l 0 625 l 69 625 l 69 694 l 694 694 l 694 625 l 764 625 l 764 0 l 486 0 l 486 278 l 278 278 m 417 833 l 417 903 l 347 903 l 347 833 l 278 833 l 278 764 l 139 764 l 139 833 l 208 833 l 208 903 l 278 903 l 278 972 l 347 972 l 347 1042 l 417 1042 l 417 972 l 486 972 l 486 903 l 556 903 l 556 833 l 625 833 l 625 764 l 486 764 l 486 833 l 417 833 m 278 556 l 278 417 l 486 417 l 486 556 l 278 556 "},"Ã":{"ha":833,"x_min":0,"x_max":764,"o":"m 278 278 l 278 0 l 0 0 l 0 625 l 69 625 l 69 694 l 694 694 l 694 625 l 764 625 l 764 0 l 486 0 l 486 278 l 278 278 m 278 903 l 278 764 l 139 764 l 139 972 l 208 972 l 208 1042 l 347 1042 l 347 972 l 417 972 l 417 903 l 486 903 l 486 1042 l 625 1042 l 625 833 l 556 833 l 556 764 l 417 764 l 417 833 l 347 833 l 347 903 l 278 903 m 278 556 l 278 417 l 486 417 l 486 556 l 278 556 "},"Ä":{"ha":833,"x_min":0,"x_max":764,"o":"m 278 278 l 278 0 l 0 0 l 0 625 l 69 625 l 69 694 l 694 694 l 694 625 l 764 625 l 764 0 l 486 0 l 486 278 l 278 278 m 486 833 l 486 1042 l 694 1042 l 694 833 l 486 833 m 69 833 l 69 1042 l 278 1042 l 278 833 l 69 833 m 278 556 l 278 417 l 486 417 l 486 556 l 278 556 "},"Å":{"ha":833,"x_min":0,"x_max":764,"o":"m 278 278 l 278 0 l 0 0 l 0 625 l 69 625 l 69 694 l 694 694 l 694 625 l 764 625 l 764 0 l 486 0 l 486 278 l 278 278 m 139 764 l 139 1042 l 625 1042 l 625 764 l 139 764 m 278 972 l 278 833 l 486 833 l 486 972 l 278 972 m 278 556 l 278 417 l 486 417 l 486 556 l 278 556 "},"Æ":{"ha":972,"x_min":0,"x_max":903,"o":"m 208 278 l 208 0 l 0 0 l 0 625 l 69 625 l 69 694 l 903 694 l 903 556 l 556 556 l 556 417 l 694 417 l 694 278 l 556 278 l 556 139 l 903 139 l 903 0 l 347 0 l 347 278 l 208 278 m 208 556 l 208 417 l 347 417 l 347 556 l 208 556 "},"Ç":{"ha":833,"x_min":0,"x_max":764,"o":"m 208 -208 l 208 -139 l 278 -139 l 278 0 l 69 0 l 69 69 l 0 69 l 0 625 l 69 625 l 69 694 l 694 694 l 694 625 l 764 625 l 764 417 l 486 417 l 486 556 l 278 556 l 278 139 l 486 139 l 486 278 l 764 278 l 764 69 l 694 69 l 694 0 l 486 0 l 486 -139 l 417 -139 l 417 -208 l 208 -208 "},"È":{"ha":833,"x_min":0,"x_max":764,"o":"m 69 0 l 69 69 l 0 69 l 0 625 l 69 625 l 69 694 l 764 694 l 764 556 l 278 556 l 278 417 l 486 417 l 486 278 l 278 278 l 278 139 l 764 139 l 764 0 l 69 0 m 208 903 l 208 1042 l 347 1042 l 347 972 l 417 972 l 417 903 l 486 903 l 486 764 l 347 764 l 347 833 l 278 833 l 278 903 l 208 903 "},"É":{"ha":833,"x_min":0,"x_max":764,"o":"m 69 0 l 69 69 l 0 69 l 0 625 l 69 625 l 69 694 l 764 694 l 764 556 l 278 556 l 278 417 l 486 417 l 486 278 l 278 278 l 278 139 l 764 139 l 764 0 l 69 0 m 417 833 l 417 764 l 278 764 l 278 903 l 347 903 l 347 972 l 417 972 l 417 1042 l 556 1042 l 556 903 l 486 903 l 486 833 l 417 833 "},"Ê":{"ha":833,"x_min":0,"x_max":764,"o":"m 69 0 l 69 69 l 0 69 l 0 625 l 69 625 l 69 694 l 764 694 l 764 556 l 278 556 l 278 417 l 486 417 l 486 278 l 278 278 l 278 139 l 764 139 l 764 0 l 69 0 m 417 833 l 417 903 l 347 903 l 347 833 l 278 833 l 278 764 l 139 764 l 139 833 l 208 833 l 208 903 l 278 903 l 278 972 l 347 972 l 347 1042 l 417 1042 l 417 972 l 486 972 l 486 903 l 556 903 l 556 833 l 625 833 l 625 764 l 486 764 l 486 833 l 417 833 "},"Ë":{"ha":833,"x_min":0,"x_max":764,"o":"m 69 0 l 69 69 l 0 69 l 0 625 l 69 625 l 69 694 l 764 694 l 764 556 l 278 556 l 278 417 l 486 417 l 486 278 l 278 278 l 278 139 l 764 139 l 764 0 l 69 0 m 486 833 l 486 1042 l 694 1042 l 694 833 l 486 833 m 69 833 l 69 1042 l 278 1042 l 278 833 l 69 833 "},"Ì":{"ha":764,"x_min":0,"x_max":694,"o":"m 0 556 l 0 694 l 694 694 l 694 556 l 486 556 l 486 139 l 694 139 l 694 0 l 0 0 l 0 139 l 208 139 l 208 556 l 0 556 m 208 903 l 208 1042 l 347 1042 l 347 972 l 417 972 l 417 903 l 486 903 l 486 764 l 347 764 l 347 833 l 278 833 l 278 903 l 208 903 "},"Í":{"ha":764,"x_min":0,"x_max":694,"o":"m 0 556 l 0 694 l 694 694 l 694 556 l 486 556 l 486 139 l 694 139 l 694 0 l 0 0 l 0 139 l 208 139 l 208 556 l 0 556 m 347 833 l 347 764 l 208 764 l 208 903 l 278 903 l 278 972 l 347 972 l 347 1042 l 486 1042 l 486 903 l 417 903 l 417 833 l 347 833 "},"Î":{"ha":764,"x_min":0,"x_max":694,"o":"m 0 556 l 0 694 l 694 694 l 694 556 l 486 556 l 486 139 l 694 139 l 694 0 l 0 0 l 0 139 l 208 139 l 208 556 l 0 556 m 69 764 l 69 833 l 139 833 l 139 903 l 208 903 l 208 972 l 278 972 l 278 1042 l 417 1042 l 417 972 l 486 972 l 486 903 l 556 903 l 556 833 l 625 833 l 625 764 l 486 764 l 486 833 l 417 833 l 417 903 l 278 903 l 278 833 l 208 833 l 208 764 l 69 764 "},"Ï":{"ha":764,"x_min":0,"x_max":694,"o":"m 0 556 l 0 694 l 694 694 l 694 556 l 486 556 l 486 139 l 694 139 l 694 0 l 0 0 l 0 139 l 208 139 l 208 556 l 0 556 m 69 833 l 69 1042 l 278 1042 l 278 833 l 69 833 m 417 833 l 417 1042 l 625 1042 l 625 833 l 417 833 "},"Ð":{"ha":903,"x_min":0,"x_max":833,"o":"m 0 278 l 0 417 l 69 417 l 69 694 l 694 694 l 694 625 l 764 625 l 764 556 l 833 556 l 833 139 l 764 139 l 764 69 l 694 69 l 694 0 l 69 0 l 69 278 l 0 278 m 347 278 l 347 139 l 486 139 l 486 208 l 556 208 l 556 486 l 486 486 l 486 556 l 347 556 l 347 417 l 417 417 l 417 278 l 347 278 "},"Ñ":{"ha":833,"x_min":0,"x_max":764,"o":"m 278 347 l 278 0 l 0 0 l 0 694 l 278 694 l 278 625 l 347 625 l 347 556 l 417 556 l 417 486 l 486 486 l 486 694 l 764 694 l 764 0 l 486 0 l 486 208 l 417 208 l 417 278 l 347 278 l 347 347 l 278 347 m 278 903 l 278 764 l 139 764 l 139 972 l 208 972 l 208 1042 l 347 1042 l 347 972 l 417 972 l 417 903 l 486 903 l 486 1042 l 625 1042 l 625 833 l 556 833 l 556 764 l 417 764 l 417 833 l 347 833 l 347 903 l 278 903 "},"Ò":{"ha":833,"x_min":0,"x_max":764,"o":"m 694 69 l 694 0 l 69 0 l 69 69 l 0 69 l 0 625 l 69 625 l 69 694 l 694 694 l 694 625 l 764 625 l 764 69 l 694 69 m 486 556 l 278 556 l 278 139 l 486 139 l 486 556 m 208 903 l 208 1042 l 347 1042 l 347 972 l 417 972 l 417 903 l 486 903 l 486 764 l 347 764 l 347 833 l 278 833 l 278 903 l 208 903 "},"Ó":{"ha":833,"x_min":0,"x_max":764,"o":"m 694 69 l 694 0 l 69 0 l 69 69 l 0 69 l 0 625 l 69 625 l 69 694 l 694 694 l 694 625 l 764 625 l 764 69 l 694 69 m 486 556 l 278 556 l 278 139 l 486 139 l 486 556 m 417 833 l 417 764 l 278 764 l 278 903 l 347 903 l 347 972 l 417 972 l 417 1042 l 556 1042 l 556 903 l 486 903 l 486 833 l 417 833 "},"Ô":{"ha":833,"x_min":0,"x_max":764,"o":"m 694 69 l 694 0 l 69 0 l 69 69 l 0 69 l 0 625 l 69 625 l 69 694 l 694 694 l 694 625 l 764 625 l 764 69 l 694 69 m 486 556 l 278 556 l 278 139 l 486 139 l 486 556 m 417 833 l 417 903 l 347 903 l 347 833 l 278 833 l 278 764 l 139 764 l 139 833 l 208 833 l 208 903 l 278 903 l 278 972 l 347 972 l 347 1042 l 417 1042 l 417 972 l 486 972 l 486 903 l 556 903 l 556 833 l 625 833 l 625 764 l 486 764 l 486 833 l 417 833 "},"Õ":{"ha":833,"x_min":0,"x_max":764,"o":"m 694 69 l 694 0 l 69 0 l 69 69 l 0 69 l 0 625 l 69 625 l 69 694 l 694 694 l 694 625 l 764 625 l 764 69 l 694 69 m 278 903 l 278 764 l 139 764 l 139 972 l 208 972 l 208 1042 l 347 1042 l 347 972 l 417 972 l 417 903 l 486 903 l 486 1042 l 625 1042 l 625 833 l 556 833 l 556 764 l 417 764 l 417 833 l 347 833 l 347 903 l 278 903 m 486 556 l 278 556 l 278 139 l 486 139 l 486 556 "},"Ö":{"ha":833,"x_min":0,"x_max":764,"o":"m 694 69 l 694 0 l 69 0 l 69 69 l 0 69 l 0 625 l 69 625 l 69 694 l 694 694 l 694 625 l 764 625 l 764 69 l 694 69 m 486 556 l 278 556 l 278 139 l 486 139 l 486 556 m 486 833 l 486 1042 l 694 1042 l 694 833 l 486 833 m 69 833 l 69 1042 l 278 1042 l 278 833 l 69 833 "},"×":{"ha":625,"x_min":0,"x_max":556,"o":"m 0 486 l 0 625 l 139 625 l 139 556 l 208 556 l 208 486 l 347 486 l 347 556 l 417 556 l 417 625 l 556 625 l 556 486 l 486 486 l 486 417 l 417 417 l 417 278 l 486 278 l 486 208 l 556 208 l 556 69 l 417 69 l 417 139 l 347 139 l 347 208 l 208 208 l 208 139 l 139 139 l 139 69 l 0 69 l 0 208 l 69 208 l 69 278 l 139 278 l 139 417 l 69 417 l 69 486 l 0 486 "},"Ø":{"ha":833,"x_min":0,"x_max":764,"o":"m 0 -139 l 0 0 l 69 0 l 69 69 l 0 69 l 0 625 l 69 625 l 69 694 l 556 694 l 556 764 l 625 764 l 625 833 l 764 833 l 764 694 l 694 694 l 694 625 l 764 625 l 764 69 l 694 69 l 694 0 l 208 0 l 208 -69 l 139 -69 l 139 -139 l 0 -139 m 278 556 l 278 347 l 347 347 l 347 486 l 417 486 l 417 556 l 278 556 m 347 208 l 347 139 l 486 139 l 486 347 l 417 347 l 417 208 l 347 208 "},"Ù":{"ha":833,"x_min":0,"x_max":764,"o":"m 694 69 l 694 0 l 69 0 l 69 69 l 0 69 l 0 694 l 278 694 l 278 139 l 486 139 l 486 694 l 764 694 l 764 69 l 694 69 m 208 903 l 208 1042 l 347 1042 l 347 972 l 417 972 l 417 903 l 486 903 l 486 764 l 347 764 l 347 833 l 278 833 l 278 903 l 208 903 "},"Ú":{"ha":833,"x_min":0,"x_max":764,"o":"m 694 69 l 694 0 l 69 0 l 69 69 l 0 69 l 0 694 l 278 694 l 278 139 l 486 139 l 486 694 l 764 694 l 764 69 l 694 69 m 417 833 l 417 764 l 278 764 l 278 903 l 347 903 l 347 972 l 417 972 l 417 1042 l 556 1042 l 556 903 l 486 903 l 486 833 l 417 833 "},"Û":{"ha":833,"x_min":0,"x_max":764,"o":"m 694 69 l 694 0 l 69 0 l 69 69 l 0 69 l 0 694 l 278 694 l 278 139 l 486 139 l 486 694 l 764 694 l 764 69 l 694 69 m 417 833 l 417 903 l 347 903 l 347 833 l 278 833 l 278 764 l 139 764 l 139 833 l 208 833 l 208 903 l 278 903 l 278 972 l 347 972 l 347 1042 l 417 1042 l 417 972 l 486 972 l 486 903 l 556 903 l 556 833 l 625 833 l 625 764 l 486 764 l 486 833 l 417 833 "},"Ü":{"ha":833,"x_min":0,"x_max":764,"o":"m 694 69 l 694 0 l 69 0 l 69 69 l 0 69 l 0 694 l 278 694 l 278 139 l 486 139 l 486 694 l 764 694 l 764 69 l 694 69 m 486 833 l 486 1042 l 694 1042 l 694 833 l 486 833 m 69 833 l 69 1042 l 278 1042 l 278 833 l 69 833 "},"Ý":{"ha":903,"x_min":0,"x_max":833,"o":"m 0 417 l 0 694 l 278 694 l 278 486 l 347 486 l 347 417 l 486 417 l 486 486 l 556 486 l 556 694 l 833 694 l 833 417 l 764 417 l 764 347 l 694 347 l 694 278 l 556 278 l 556 0 l 278 0 l 278 278 l 139 278 l 139 347 l 69 347 l 69 417 l 0 417 m 417 833 l 417 764 l 278 764 l 278 903 l 347 903 l 347 972 l 417 972 l 417 1042 l 556 1042 l 556 903 l 486 903 l 486 833 l 417 833 "},"Þ":{"ha":833,"x_min":0,"x_max":764,"o":"m 278 139 l 278 0 l 0 0 l 0 694 l 278 694 l 278 556 l 694 556 l 694 486 l 764 486 l 764 208 l 694 208 l 694 139 l 278 139 m 278 417 l 278 278 l 486 278 l 486 417 l 278 417 "},"ß":{"ha":833,"x_min":0,"x_max":764,"o":"m 278 556 l 278 0 l 69 0 l 69 69 l 0 69 l 0 625 l 69 625 l 69 694 l 694 694 l 694 625 l 764 625 l 764 417 l 694 417 l 694 278 l 764 278 l 764 69 l 694 69 l 694 0 l 347 0 l 347 139 l 486 139 l 486 278 l 347 278 l 347 417 l 486 417 l 486 556 l 278 556 "},"à":{"ha":833,"x_min":0,"x_max":764,"o":"m 278 278 l 278 0 l 0 0 l 0 625 l 69 625 l 69 694 l 694 694 l 694 625 l 764 625 l 764 0 l 486 0 l 486 278 l 278 278 m 208 903 l 208 1042 l 347 1042 l 347 972 l 417 972 l 417 903 l 486 903 l 486 764 l 347 764 l 347 833 l 278 833 l 278 903 l 208 903 m 278 556 l 278 417 l 486 417 l 486 556 l 278 556 "},"á":{"ha":833,"x_min":0,"x_max":764,"o":"m 278 278 l 278 0 l 0 0 l 0 625 l 69 625 l 69 694 l 694 694 l 694 625 l 764 625 l 764 0 l 486 0 l 486 278 l 278 278 m 417 833 l 417 764 l 278 764 l 278 903 l 347 903 l 347 972 l 417 972 l 417 1042 l 556 1042 l 556 903 l 486 903 l 486 833 l 417 833 m 278 556 l 278 417 l 486 417 l 486 556 l 278 556 "},"â":{"ha":833,"x_min":0,"x_max":764,"o":"m 278 278 l 278 0 l 0 0 l 0 625 l 69 625 l 69 694 l 694 694 l 694 625 l 764 625 l 764 0 l 486 0 l 486 278 l 278 278 m 417 833 l 417 903 l 347 903 l 347 833 l 278 833 l 278 764 l 139 764 l 139 833 l 208 833 l 208 903 l 278 903 l 278 972 l 347 972 l 347 1042 l 417 1042 l 417 972 l 486 972 l 486 903 l 556 903 l 556 833 l 625 833 l 625 764 l 486 764 l 486 833 l 417 833 m 278 556 l 278 417 l 486 417 l 486 556 l 278 556 "},"ã":{"ha":833,"x_min":0,"x_max":764,"o":"m 278 278 l 278 0 l 0 0 l 0 625 l 69 625 l 69 694 l 694 694 l 694 625 l 764 625 l 764 0 l 486 0 l 486 278 l 278 278 m 278 903 l 278 764 l 139 764 l 139 972 l 208 972 l 208 1042 l 347 1042 l 347 972 l 417 972 l 417 903 l 486 903 l 486 1042 l 625 1042 l 625 833 l 556 833 l 556 764 l 417 764 l 417 833 l 347 833 l 347 903 l 278 903 m 278 556 l 278 417 l 486 417 l 486 556 l 278 556 "},"ä":{"ha":833,"x_min":0,"x_max":764,"o":"m 278 278 l 278 0 l 0 0 l 0 625 l 69 625 l 69 694 l 694 694 l 694 625 l 764 625 l 764 0 l 486 0 l 486 278 l 278 278 m 486 833 l 486 1042 l 694 1042 l 694 833 l 486 833 m 69 833 l 69 1042 l 278 1042 l 278 833 l 69 833 m 278 556 l 278 417 l 486 417 l 486 556 l 278 556 "},"å":{"ha":833,"x_min":0,"x_max":764,"o":"m 278 278 l 278 0 l 0 0 l 0 625 l 69 625 l 69 694 l 694 694 l 694 625 l 764 625 l 764 0 l 486 0 l 486 278 l 278 278 m 139 764 l 139 1042 l 625 1042 l 625 764 l 139 764 m 278 972 l 278 833 l 486 833 l 486 972 l 278 972 m 278 556 l 278 417 l 486 417 l 486 556 l 278 556 "},"æ":{"ha":972,"x_min":0,"x_max":903,"o":"m 208 278 l 208 0 l 0 0 l 0 625 l 69 625 l 69 694 l 903 694 l 903 556 l 556 556 l 556 417 l 694 417 l 694 278 l 556 278 l 556 139 l 903 139 l 903 0 l 347 0 l 347 278 l 208 278 m 208 556 l 208 417 l 347 417 l 347 556 l 208 556 "},"ç":{"ha":833,"x_min":0,"x_max":764,"o":"m 208 -208 l 208 -139 l 278 -139 l 278 0 l 69 0 l 69 69 l 0 69 l 0 625 l 69 625 l 69 694 l 694 694 l 694 625 l 764 625 l 764 417 l 486 417 l 486 556 l 278 556 l 278 139 l 486 139 l 486 278 l 764 278 l 764 69 l 694 69 l 694 0 l 486 0 l 486 -139 l 417 -139 l 417 -208 l 208 -208 "},"è":{"ha":833,"x_min":0,"x_max":764,"o":"m 69 0 l 69 69 l 0 69 l 0 625 l 69 625 l 69 694 l 764 694 l 764 556 l 278 556 l 278 417 l 486 417 l 486 278 l 278 278 l 278 139 l 764 139 l 764 0 l 69 0 m 208 903 l 208 1042 l 347 1042 l 347 972 l 417 972 l 417 903 l 486 903 l 486 764 l 347 764 l 347 833 l 278 833 l 278 903 l 208 903 "},"é":{"ha":833,"x_min":0,"x_max":764,"o":"m 69 0 l 69 69 l 0 69 l 0 625 l 69 625 l 69 694 l 764 694 l 764 556 l 278 556 l 278 417 l 486 417 l 486 278 l 278 278 l 278 139 l 764 139 l 764 0 l 69 0 m 417 833 l 417 764 l 278 764 l 278 903 l 347 903 l 347 972 l 417 972 l 417 1042 l 556 1042 l 556 903 l 486 903 l 486 833 l 417 833 "},"ê":{"ha":833,"x_min":0,"x_max":764,"o":"m 69 0 l 69 69 l 0 69 l 0 625 l 69 625 l 69 694 l 764 694 l 764 556 l 278 556 l 278 417 l 486 417 l 486 278 l 278 278 l 278 139 l 764 139 l 764 0 l 69 0 m 417 833 l 417 903 l 347 903 l 347 833 l 278 833 l 278 764 l 139 764 l 139 833 l 208 833 l 208 903 l 278 903 l 278 972 l 347 972 l 347 1042 l 417 1042 l 417 972 l 486 972 l 486 903 l 556 903 l 556 833 l 625 833 l 625 764 l 486 764 l 486 833 l 417 833 "},"ë":{"ha":833,"x_min":0,"x_max":764,"o":"m 69 0 l 69 69 l 0 69 l 0 625 l 69 625 l 69 694 l 764 694 l 764 556 l 278 556 l 278 417 l 486 417 l 486 278 l 278 278 l 278 139 l 764 139 l 764 0 l 69 0 m 486 833 l 486 1042 l 694 1042 l 694 833 l 486 833 m 69 833 l 69 1042 l 278 1042 l 278 833 l 69 833 "},"ì":{"ha":764,"x_min":0,"x_max":694,"o":"m 0 556 l 0 694 l 694 694 l 694 556 l 486 556 l 486 139 l 694 139 l 694 0 l 0 0 l 0 139 l 208 139 l 208 556 l 0 556 m 208 903 l 208 1042 l 347 1042 l 347 972 l 417 972 l 417 903 l 486 903 l 486 764 l 347 764 l 347 833 l 278 833 l 278 903 l 208 903 "},"í":{"ha":764,"x_min":0,"x_max":694,"o":"m 0 556 l 0 694 l 694 694 l 694 556 l 486 556 l 486 139 l 694 139 l 694 0 l 0 0 l 0 139 l 208 139 l 208 556 l 0 556 m 347 833 l 347 764 l 208 764 l 208 903 l 278 903 l 278 972 l 347 972 l 347 1042 l 486 1042 l 486 903 l 417 903 l 417 833 l 347 833 "},"î":{"ha":764,"x_min":0,"x_max":694,"o":"m 0 556 l 0 694 l 694 694 l 694 556 l 486 556 l 486 139 l 694 139 l 694 0 l 0 0 l 0 139 l 208 139 l 208 556 l 0 556 m 69 764 l 69 833 l 139 833 l 139 903 l 208 903 l 208 972 l 278 972 l 278 1042 l 417 1042 l 417 972 l 486 972 l 486 903 l 556 903 l 556 833 l 625 833 l 625 764 l 486 764 l 486 833 l 417 833 l 417 903 l 278 903 l 278 833 l 208 833 l 208 764 l 69 764 "},"ï":{"ha":764,"x_min":0,"x_max":694,"o":"m 0 556 l 0 694 l 694 694 l 694 556 l 486 556 l 486 139 l 694 139 l 694 0 l 0 0 l 0 139 l 208 139 l 208 556 l 0 556 m 69 833 l 69 1042 l 278 1042 l 278 833 l 69 833 m 417 833 l 417 1042 l 625 1042 l 625 833 l 417 833 "},"ð":{"ha":903,"x_min":0,"x_max":833,"o":"m 0 278 l 0 417 l 69 417 l 69 694 l 694 694 l 694 625 l 764 625 l 764 556 l 833 556 l 833 139 l 764 139 l 764 69 l 694 69 l 694 0 l 69 0 l 69 278 l 0 278 m 347 278 l 347 139 l 486 139 l 486 208 l 556 208 l 556 486 l 486 486 l 486 556 l 347 556 l 347 417 l 417 417 l 417 278 l 347 278 "},"ñ":{"ha":833,"x_min":0,"x_max":764,"o":"m 278 347 l 278 0 l 0 0 l 0 694 l 278 694 l 278 625 l 347 625 l 347 556 l 417 556 l 417 486 l 486 486 l 486 694 l 764 694 l 764 0 l 486 0 l 486 208 l 417 208 l 417 278 l 347 278 l 347 347 l 278 347 m 278 903 l 278 764 l 139 764 l 139 972 l 208 972 l 208 1042 l 347 1042 l 347 972 l 417 972 l 417 903 l 486 903 l 486 1042 l 625 1042 l 625 833 l 556 833 l 556 764 l 417 764 l 417 833 l 347 833 l 347 903 l 278 903 "},"ò":{"ha":833,"x_min":0,"x_max":764,"o":"m 694 69 l 694 0 l 69 0 l 69 69 l 0 69 l 0 625 l 69 625 l 69 694 l 694 694 l 694 625 l 764 625 l 764 69 l 694 69 m 486 556 l 278 556 l 278 139 l 486 139 l 486 556 m 208 903 l 208 1042 l 347 1042 l 347 972 l 417 972 l 417 903 l 486 903 l 486 764 l 347 764 l 347 833 l 278 833 l 278 903 l 208 903 "},"ó":{"ha":833,"x_min":0,"x_max":764,"o":"m 694 69 l 694 0 l 69 0 l 69 69 l 0 69 l 0 625 l 69 625 l 69 694 l 694 694 l 694 625 l 764 625 l 764 69 l 694 69 m 486 556 l 278 556 l 278 139 l 486 139 l 486 556 m 417 833 l 417 764 l 278 764 l 278 903 l 347 903 l 347 972 l 417 972 l 417 1042 l 556 1042 l 556 903 l 486 903 l 486 833 l 417 833 "},"ô":{"ha":833,"x_min":0,"x_max":764,"o":"m 694 69 l 694 0 l 69 0 l 69 69 l 0 69 l 0 625 l 69 625 l 69 694 l 694 694 l 694 625 l 764 625 l 764 69 l 694 69 m 486 556 l 278 556 l 278 139 l 486 139 l 486 556 m 417 833 l 417 903 l 347 903 l 347 833 l 278 833 l 278 764 l 139 764 l 139 833 l 208 833 l 208 903 l 278 903 l 278 972 l 347 972 l 347 1042 l 417 1042 l 417 972 l 486 972 l 486 903 l 556 903 l 556 833 l 625 833 l 625 764 l 486 764 l 486 833 l 417 833 "},"õ":{"ha":833,"x_min":0,"x_max":764,"o":"m 694 69 l 694 0 l 69 0 l 69 69 l 0 69 l 0 625 l 69 625 l 69 694 l 694 694 l 694 625 l 764 625 l 764 69 l 694 69 m 278 903 l 278 764 l 139 764 l 139 972 l 208 972 l 208 1042 l 347 1042 l 347 972 l 417 972 l 417 903 l 486 903 l 486 1042 l 625 1042 l 625 833 l 556 833 l 556 764 l 417 764 l 417 833 l 347 833 l 347 903 l 278 903 m 486 556 l 278 556 l 278 139 l 486 139 l 486 556 "},"ö":{"ha":833,"x_min":0,"x_max":764,"o":"m 694 69 l 694 0 l 69 0 l 69 69 l 0 69 l 0 625 l 69 625 l 69 694 l 694 694 l 694 625 l 764 625 l 764 69 l 694 69 m 486 556 l 278 556 l 278 139 l 486 139 l 486 556 m 486 833 l 486 1042 l 694 1042 l 694 833 l 486 833 m 69 833 l 69 1042 l 278 1042 l 278 833 l 69 833 "},"÷":{"ha":694,"x_min":0,"x_max":625,"o":"m 0 278 l 0 417 l 625 417 l 625 278 l 0 278 m 208 486 l 208 694 l 417 694 l 417 486 l 208 486 m 208 0 l 208 208 l 417 208 l 417 0 l 208 0 "},"ø":{"ha":833,"x_min":0,"x_max":764,"o":"m 0 -139 l 0 0 l 69 0 l 69 69 l 0 69 l 0 625 l 69 625 l 69 694 l 556 694 l 556 764 l 625 764 l 625 833 l 764 833 l 764 694 l 694 694 l 694 625 l 764 625 l 764 69 l 694 69 l 694 0 l 208 0 l 208 -69 l 139 -69 l 139 -139 l 0 -139 m 278 556 l 278 347 l 347 347 l 347 486 l 417 486 l 417 556 l 278 556 m 347 208 l 347 139 l 486 139 l 486 347 l 417 347 l 417 208 l 347 208 "},"ù":{"ha":833,"x_min":0,"x_max":764,"o":"m 694 69 l 694 0 l 69 0 l 69 69 l 0 69 l 0 694 l 278 694 l 278 139 l 486 139 l 486 694 l 764 694 l 764 69 l 694 69 m 208 903 l 208 1042 l 347 1042 l 347 972 l 417 972 l 417 903 l 486 903 l 486 764 l 347 764 l 347 833 l 278 833 l 278 903 l 208 903 "},"ú":{"ha":833,"x_min":0,"x_max":764,"o":"m 694 69 l 694 0 l 69 0 l 69 69 l 0 69 l 0 694 l 278 694 l 278 139 l 486 139 l 486 694 l 764 694 l 764 69 l 694 69 m 417 833 l 417 764 l 278 764 l 278 903 l 347 903 l 347 972 l 417 972 l 417 1042 l 556 1042 l 556 903 l 486 903 l 486 833 l 417 833 "},"û":{"ha":833,"x_min":0,"x_max":764,"o":"m 694 69 l 694 0 l 69 0 l 69 69 l 0 69 l 0 694 l 278 694 l 278 139 l 486 139 l 486 694 l 764 694 l 764 69 l 694 69 m 417 833 l 417 903 l 347 903 l 347 833 l 278 833 l 278 764 l 139 764 l 139 833 l 208 833 l 208 903 l 278 903 l 278 972 l 347 972 l 347 1042 l 417 1042 l 417 972 l 486 972 l 486 903 l 556 903 l 556 833 l 625 833 l 625 764 l 486 764 l 486 833 l 417 833 "},"ü":{"ha":833,"x_min":0,"x_max":764,"o":"m 694 69 l 694 0 l 69 0 l 69 69 l 0 69 l 0 694 l 278 694 l 278 139 l 486 139 l 486 694 l 764 694 l 764 69 l 694 69 m 486 833 l 486 1042 l 694 1042 l 694 833 l 486 833 m 69 833 l 69 1042 l 278 1042 l 278 833 l 69 833 "},"ý":{"ha":903,"x_min":0,"x_max":833,"o":"m 0 417 l 0 694 l 278 694 l 278 486 l 347 486 l 347 417 l 486 417 l 486 486 l 556 486 l 556 694 l 833 694 l 833 417 l 764 417 l 764 347 l 694 347 l 694 278 l 556 278 l 556 0 l 278 0 l 278 278 l 139 278 l 139 347 l 69 347 l 69 417 l 0 417 m 417 833 l 417 764 l 278 764 l 278 903 l 347 903 l 347 972 l 417 972 l 417 1042 l 556 1042 l 556 903 l 486 903 l 486 833 l 417 833 "},"þ":{"ha":833,"x_min":0,"x_max":764,"o":"m 278 69 l 278 -139 l 0 -139 l 0 833 l 278 833 l 278 625 l 694 625 l 694 556 l 764 556 l 764 139 l 694 139 l 694 69 l 278 69 m 278 486 l 278 208 l 486 208 l 486 486 l 278 486 "},"ÿ":{"ha":903,"x_min":0,"x_max":833,"o":"m 0 417 l 0 694 l 278 694 l 278 486 l 347 486 l 347 417 l 486 417 l 486 486 l 556 486 l 556 694 l 833 694 l 833 417 l 764 417 l 764 347 l 694 347 l 694 278 l 556 278 l 556 0 l 278 0 l 278 278 l 139 278 l 139 347 l 69 347 l 69 417 l 0 417 m 486 833 l 486 1042 l 694 1042 l 694 833 l 486 833 m 139 833 l 139 1042 l 347 1042 l 347 833 l 139 833 "},"":{"ha":0,"x_min":0,"x_max":0,"o":""},"":{"ha":694,"x_min":0,"x_max":0,"o":""}}}
